<?xml version="1.0" encoding="utf-8"?>
<!-- Generator: Adobe Illustrator 26.0.3, SVG Export Plug-In . SVG Version: 6.00 Build 0)  -->
<svg version="1.1" id="Layer_1" xmlns="http://www.w3.org/2000/svg" xmlns:xlink="http://www.w3.org/1999/xlink" x="0px" y="0px"
	 viewBox="0 0 629.4 511.2" style="enable-background:new 0 0 629.4 511.2;" xml:space="preserve">
<style type="text/css">
	.st0{fill:#FFFFFF;}
	.st1{fill:#265787;}
	.st2{fill:#EA7600;}
</style>
<ellipse class="st0" cx="415" cy="295" rx="149" ry="133"/>
<path class="st1" d="M328.1,287.4c1.2-21,11.5-39.5,27-52.6c33.7-27.6,82.3-27.6,116,0c15.5,13.1,25.8,31.6,27,52.6
	c1.2,21.6-7.5,41.6-22.7,56.5c-15.5,15.1-37.6,24.6-62.3,24.6s-46.8-9.5-62.3-24.6C335.6,328.9,327,308.9,328.1,287.4L328.1,287.4z"
	/>
<path class="st2" d="M192.8,329.9c0.1,8.2,2.8,24.2,6.7,36.6c8.5,26.9,22.7,51.5,41.8,72.3c20.4,22.4,45.3,40.3,73.1,52.5
	c61.2,26.7,130.8,26.6,191.9-0.3c27.7-12.3,52.6-30.2,73-52.7c19-20.8,33.3-45.6,41.8-72.5c8.2-26,10.4-53.6,6.5-80.6
	c-3.7-25.9-12.7-50.7-26.6-72.9c-12.9-20.6-29.3-38.8-48.6-53.6L355.7,7.8c-0.2-0.1-0.3-0.3-0.5-0.4c-12.9-9.9-34.6-9.9-48.8,0
	c-14.3,10-16,26.6-3.2,37.1l-0.1,0.1l82,66.7l-249.9,0.3h-0.3c-20.7,0-40.5,13.6-44.4,30.7c-4,17.4,10,31.9,31.5,32v0.1l126.7-0.2
	L22.5,347.6l-0.9,0.6C0.3,364.6-6.6,391.8,6.9,408.9c13.6,17.5,42.6,17.5,64.2,0.1l123.4-101C194.4,308,192.6,321.7,192.8,329.9
	L192.8,329.9z M509.8,375.5c-25.4,25.9-61,40.6-99.5,40.7s-74.1-14.5-99.6-40.3c-12-12.1-21.3-26.6-27.2-42.5
	c-5.5-15.2-7.7-31.4-6.2-47.5c1.4-15.7,6-31,13.7-44.8c7.7-13.8,17.9-26.1,30.2-36c24.7-20.1,56.2-31,89.1-31.1s64.4,10.8,89.1,30.8
	c12.3,9.9,22.5,22.1,30.2,35.9c7.6,13.8,12.3,29,13.7,44.7c1.4,16.1-0.7,32.3-6.3,47.5C531.1,348.8,521.8,363.4,509.8,375.5
	L509.8,375.5z"/>
</svg>
