<svg xmlns="http://www.w3.org/2000/svg" viewBox="0 0 59.9 59.9"><defs><radialGradient id="a" cx="29.82" cy="720.6" r="7" gradientTransform="matrix(1.09 .09 .17 -2.02 -125.61 1480.93)" gradientUnits="userSpaceOnUse"><stop offset="0" stop-color="#fff"/><stop offset="1" stop-color="#009bd8"/></radialGradient><radialGradient id="b" cx="31.76" cy="715.22" r="8" gradientTransform="matrix(1.97 .79 .42 -1.05 -330.67 758.52)" gradientUnits="userSpaceOnUse"><stop offset="0" stop-color="#fff"/><stop offset="1" stop-color="#ff3044"/></radialGradient><radialGradient id="c" cx="27.35" cy="713.21" r="8" gradientTransform="matrix(-1.78 1.19 .54 .81 -308.38 -577.65)" gradientUnits="userSpaceOnUse"><stop offset="0" stop-color="#fff"/><stop offset="1" stop-color="#fcff7c"/></radialGradient></defs><g data-name="Layer 2"><g data-name="Layer 1"><path data-name="d" d="m25.545 32.793 11.223-13.375 2.313 1.94-11.223 13.376z"/><path data-name="d" transform="rotate(-50 43.533 13.694)" style="fill:#0019ff" d="M34.8 12.19h17.46v3.02H34.8z"/><path data-name="d" transform="rotate(-49 43.813 13.938)" style="fill:#0015ff" d="M35.08 12.43h17.46v3.02H35.08z"/><path data-name="d" transform="rotate(-48 44.093 14.182)" style="fill:#01f" d="M35.36 12.67h17.46v3.02H35.36z"/><path data-name="d" transform="rotate(-47 44.368 14.438)" style="fill:#000cff" d="M35.63 12.92h17.46v3.02H35.63z"/><path data-name="d" transform="rotate(-46 44.63 14.69)" style="fill:#0008ff" d="M35.9 13.18h17.46v3.02H35.9z"/><path data-name="d" transform="rotate(-45 44.89 14.946)" style="fill:#0004ff" d="M36.17 13.44h17.46v3.02H36.17z"/><path data-name="d" transform="rotate(-44 45.161 15.209)" style="fill:#00f" d="M36.43 13.7h17.46v3.02H36.43z"/><path data-name="d" transform="rotate(-43 45.416 15.47)" style="fill:#0500ff" d="M36.68 13.97h17.46v3.02H36.68z"/><path data-name="d" transform="rotate(-42 45.663 15.75)" style="fill:#0900ff" d="M36.93 14.24h17.46v3.02H36.93z"/><path data-name="d" transform="rotate(-41 45.91 16.022)" style="fill:#0d00ff" d="M37.18 14.51h17.46v3.02H37.18z"/><path data-name="d" transform="rotate(-40 46.153 16.3)" style="fill:#10f" d="M37.42 14.8h17.46v3.02H37.42z"/><path data-name="d" transform="rotate(-39 46.39 16.586)" style="fill:#1600ff" d="M37.65 15.08h17.46v3.02H37.65z"/><path data-name="d" transform="rotate(-38 46.619 16.88)" style="fill:#1a00ff" d="M37.88 15.37h17.46v3.02H37.88z"/><path data-name="d" transform="rotate(-37 46.846 17.17)" style="fill:#1e00ff" d="M38.11 15.66h17.46v3.02H38.11z"/><path data-name="d" transform="rotate(-36 47.064 17.47)" style="fill:#20f" d="M38.33 15.96h17.46v3.02H38.33z"/><path data-name="d" transform="rotate(-35 47.277 17.766)" style="fill:#2700ff" d="M38.55 16.26h17.46v3.02H38.55z"/><path data-name="d" transform="rotate(-34 47.479 18.074)" style="fill:#2b00ff" d="M38.76 16.56h17.46v3.02H38.76z"/><path data-name="d" transform="rotate(-33 47.69 18.386)" style="fill:#2f00ff" d="M38.96 16.87h17.46v3.02H38.96z"/><path data-name="d" transform="rotate(-32 47.892 18.696)" style="fill:#30f" d="M39.16 17.18h17.46v3.02H39.16z"/><path data-name="d" transform="matrix(.86 -.52 .52 .86 -2.92 27.48)" style="fill:#3800ff" d="M39.35 17.5h17.46v3.02H39.35z"/><path data-name="d" transform="rotate(-30 48.284 19.318)" style="fill:#3c00ff" d="M39.54 17.82H57v3.02H39.54z"/><path data-name="d" transform="rotate(-29 48.446 19.645)" style="fill:#4000ff" d="M39.73 18.14h17.46v3.02H39.73z"/><path data-name="d" transform="rotate(-28 48.636 19.965)" style="fill:#40f" d="M39.9 18.46h17.46v3.02H39.9z"/><path data-name="d" transform="rotate(-27 48.804 20.307)" style="fill:#4800ff" d="M40.07 18.79h17.46v3.02H40.07z"/><path data-name="d" transform="rotate(-26 48.958 20.633)" style="fill:#4d00ff" d="M40.24 19.12H57.7v3.02H40.24z"/><path data-name="d" transform="rotate(-25 49.134 20.973)" style="fill:#5100ff" d="M40.4 19.45h17.46v3.02H40.4z"/><path data-name="d" transform="rotate(-24 49.292 21.295)" style="fill:#50f" d="M40.55 19.79h17.46v3.02H40.55z"/><path data-name="d" transform="rotate(-23 49.423 21.623)" style="fill:#5900ff" d="M40.7 20.13h17.46v3.02H40.7z"/><path data-name="d" transform="rotate(-22 49.573 21.969)" style="fill:#5e00ff" d="M40.84 20.47H58.3v3.02H40.84z"/><path data-name="d" transform="rotate(-21 49.717 22.33)" style="fill:#6200ff" d="M40.98 20.81h17.46v3.02H40.98z"/><path data-name="d" transform="rotate(-20 49.83 22.674)" style="fill:#60f" d="M41.11 21.16h17.46v3.02H41.11z"/><path data-name="d" transform="rotate(-19 49.963 23.012)" style="fill:#6a00ff" d="M41.23 21.51h17.46v3.02H41.23z"/><path data-name="d" transform="rotate(-18 50.082 23.368)" style="fill:#6f00ff" d="M41.35 21.86h17.46v3.02H41.35z"/><path data-name="d" transform="rotate(-17 50.189 23.713)" style="fill:#7300ff" d="M41.46 22.21h17.46v3.02H41.46z"/><path data-name="d" transform="rotate(-16 50.309 24.086)" style="fill:#70f" d="M41.57 22.56h17.46v3.02H41.57z"/><path data-name="d" transform="rotate(-15 50.415 24.41)" style="fill:#7b00ff" d="M41.67 22.92h17.46v3.02H41.67z"/><path data-name="d" transform="rotate(-14 50.485 24.8)" style="fill:#8000ff" d="M41.76 23.28h17.46v3.02H41.76z"/><path data-name="d" transform="rotate(-13 50.57 25.144)" style="fill:#8400ff" d="M41.85 23.64h17.46v3.02H41.85z"/><path data-name="d" transform="rotate(-12 50.657 25.525)" style="fill:#80f" d="M41.93 24h17.46v3.02H41.93z"/><path data-name="d" transform="rotate(-11 50.758 25.85)" style="fill:#8c00ff" d="M42 24.36h17.46v3.02H42z"/><path data-name="d" transform="rotate(-10 50.803 26.213)" style="fill:#9100ff" d="M42.07 24.72h17.46v3.02H42.07z"/><path data-name="d" transform="rotate(-9 50.839 26.566)" style="fill:#9500ff" d="M42.13 25.09h17.46v3.02H42.13z"/><path data-name="d" transform="rotate(-8 50.925 26.985)" style="fill:#90f" d="M42.19 25.45h17.46v3.02H42.19z"/><path data-name="d" transform="rotate(-7 51.008 27.326)" style="fill:#9d00ff" d="M42.24 25.82H59.7v3.02H42.24z"/><path data-name="d" transform="rotate(-6 50.972 27.736)" style="fill:#a100ff" d="M42.28 26.19h17.46v3.02H42.28z"/><path data-name="d" transform="rotate(-5 51.096 28.047)" style="fill:#a600ff" d="M42.32 26.55h17.46v3.02H42.32z"/><path data-name="d" transform="translate(-1.86 3.63)" style="fill:#a0f" d="M42.35 26.92h17.46v3.02H42.35z"/><path data-name="d" transform="rotate(-3 51.025 28.85)" style="fill:#ae00ff" d="M42.37 27.29h17.46v3.02H42.37z"/><path data-name="d" transform="rotate(-2 51.066 29.259)" style="fill:#b200ff" d="M42.39 27.66h17.46v3.02H42.39z"/><path data-name="d" transform="rotate(-1 51.31 29.67)" style="fill:#b700ff" d="M42.4 28.03h17.46v3.02H42.4z"/><path data-name="d" style="fill:#b0f" d="M42.4 28.4h17.46v3.02H42.4z"/><path data-name="d" transform="rotate(-89 51.132 30.274)" style="fill:#bf00ff" d="M49.62 21.55h3.02v17.46h-3.02z"/><path data-name="d" transform="rotate(-88 51.123 30.648)" style="fill:#c300ff" d="M49.61 21.92h3.02v17.46h-3.02z"/><path data-name="d" transform="rotate(-87 51.108 31.015)" style="fill:#c800ff" d="M49.6 22.29h3.02v17.46H49.6z"/><path data-name="d" transform="rotate(-86 51.086 31.388)" style="fill:#c0f" d="M49.58 22.66h3.02v17.46h-3.02z"/><path data-name="d" transform="rotate(-85 51.055 31.757)" style="fill:#d000ff" d="M49.55 23.02h3.02v17.46h-3.02z"/><path data-name="d" transform="matrix(.1 -.99 .99 .1 13.74 79.51)" style="fill:#d400ff" d="M49.51 23.39h3.02v17.46h-3.02z"/><path data-name="d" transform="rotate(-83 50.98 32.49)" style="fill:#d900ff" d="M49.47 23.76h3.02v17.46h-3.02z"/><path data-name="d" transform="rotate(-82 50.934 32.855)" style="fill:#d0f" d="M49.42 24.13h3.02v17.46h-3.02z"/><path data-name="d" transform="rotate(-81 50.882 33.221)" style="fill:#e100ff" d="M49.37 24.49h3.02v17.46h-3.02z"/><path data-name="d" transform="rotate(-80 50.82 33.585)" style="fill:#e500ff" d="M49.31 24.86h3.02v17.46h-3.02z"/><path data-name="d" transform="rotate(-79 50.75 33.95)" style="fill:#ea00ff" d="M49.24 25.22h3.02v17.46h-3.02z"/><path data-name="d" transform="rotate(-78 50.68 34.312)" style="fill:#e0f" d="M49.17 25.58h3.02v17.46h-3.02z"/><path data-name="d" transform="rotate(-77 50.6 34.677)" style="fill:#f200ff" d="M49.09 25.94h3.02V43.4h-3.02z"/><path data-name="d" transform="rotate(-76 50.513 35.033)" style="fill:#f600ff" d="M49.01 26.3h3.02v17.46h-3.02z"/><path data-name="d" transform="matrix(.26 -.97 .97 .26 3.19 74.94)" style="fill:#fa00ff" d="M48.91 26.66h3.02v17.46h-3.02z"/><path data-name="d" transform="rotate(-74 50.325 35.748)" style="fill:#f0f" d="M48.82 27.02h3.02v17.46h-3.02z"/><path data-name="d" transform="rotate(-73 50.217 36.103)" style="fill:#ff00fb" d="M48.71 27.37h3.02v17.46h-3.02z"/><path data-name="d" transform="rotate(-72 50.11 36.46)" style="fill:#ff00f7" d="M48.6 27.73h3.02v17.46H48.6z"/><path data-name="d" transform="rotate(-71 49.993 36.802)" style="fill:#ff00f3" d="M48.48 28.08h3.02v17.46h-3.02z"/><path data-name="d" transform="rotate(-70 49.87 37.155)" style="fill:#f0e" d="M48.36 28.42h3.02v17.46h-3.02z"/><path data-name="d" transform="rotate(-69 49.744 37.498)" style="fill:#ff00ea" d="M48.23 28.77h3.02v17.46h-3.02z"/><path data-name="d" transform="rotate(-68 49.603 37.847)" style="fill:#ff00e6" d="M48.1 29.12h3.02v17.46H48.1z"/><path data-name="d" transform="rotate(-67 49.468 38.185)" style="fill:#ff00e2" d="M47.96 29.46h3.02v17.46h-3.02z"/><path data-name="d" transform="rotate(-66 49.316 38.528)" style="fill:#f0d" d="M47.81 29.8h3.02v17.46h-3.02z"/><path data-name="d" transform="rotate(-65 49.17 38.86)" style="fill:#ff00d9" d="M47.66 30.13h3.02v17.46h-3.02z"/><path data-name="d" transform="rotate(-64 49.004 39.2)" style="fill:#ff00d5" d="M47.5 30.47h3.02v17.46H47.5z"/><path data-name="d" transform="rotate(-63 48.842 39.526)" style="fill:#ff00d1" d="M47.34 30.8h3.02v17.46h-3.02z"/><path data-name="d" transform="rotate(-62 48.672 39.857)" style="fill:#f0c" d="M47.17 31.13h3.02v17.46h-3.02z"/><path data-name="d" transform="rotate(-61 48.498 40.184)" style="fill:#ff00c8" d="M46.99 31.45h3.02v17.46h-3.02z"/><path data-name="d" transform="rotate(-60 48.32 40.507)" style="fill:#ff00c4" d="M46.81 31.77h3.02v17.46h-3.02z"/><path data-name="d" transform="rotate(-59 48.128 40.82)" style="fill:#ff00c0" d="M46.62 32.09h3.02v17.46h-3.02z"/><path data-name="d" transform="rotate(-58 47.937 41.135)" style="fill:#f0b" d="M46.43 32.41h3.02v17.46h-3.02z"/><path data-name="d" transform="rotate(-57 47.734 41.454)" style="fill:#ff00b7" d="M46.23 32.72h3.02v17.46h-3.02z"/><path data-name="d" transform="rotate(-56 47.537 41.765)" style="fill:#ff00b3" d="M46.03 33.03h3.02v17.46h-3.02z"/><path data-name="d" transform="rotate(-55 47.33 42.07)" style="fill:#ff00af" d="M45.82 33.33h3.02v17.46h-3.02z"/><path data-name="d" transform="rotate(-54 47.116 42.362)" style="fill:#ff00ab" d="M45.6 33.64h3.02V51.1H45.6z"/><path data-name="d" transform="rotate(-53 46.895 42.664)" style="fill:#ff00a6" d="M45.39 33.93h3.02v17.46h-3.02z"/><path data-name="d" transform="rotate(-52 46.675 42.955)" style="fill:#ff00a2" d="M45.16 34.23h3.02v17.46h-3.02z"/><path data-name="d" transform="rotate(-51 46.436 43.252)" style="fill:#ff009e" d="M44.93 34.52h3.02v17.46h-3.02z"/><path data-name="d" transform="rotate(-50 46.211 43.532)" style="fill:#ff009a" d="M44.7 34.8h3.02v17.46H44.7z"/><path data-name="d" transform="rotate(-49 45.964 43.817)" style="fill:#ff0095" d="M44.46 35.08h3.02v17.46h-3.02z"/><path data-name="d" transform="rotate(-48 45.725 44.095)" style="fill:#ff0091" d="M44.21 35.36h3.02v17.46h-3.02z"/><path data-name="d" transform="rotate(-47 45.477 44.372)" style="fill:#ff008d" d="M43.96 35.63h3.02v17.46h-3.02z"/><path data-name="d" transform="rotate(-46 45.223 44.636)" style="fill:#ff0089" d="M43.71 35.9h3.02v17.46h-3.02z"/><path data-name="d" transform="rotate(-45 44.957 44.898)" style="fill:#ff0084" d="M43.45 36.17h3.02v17.46h-3.02z"/><path data-name="d" transform="rotate(-44 44.69 45.163)" style="fill:#ff0080" d="M43.19 36.43h3.02v17.46h-3.02z"/><path data-name="d" transform="rotate(-43 44.426 45.418)" style="fill:#ff007c" d="M42.92 36.68h3.02v17.46h-3.02z"/><path data-name="d" transform="rotate(-42 44.164 45.662)" style="fill:#ff0078" d="M42.65 36.93h3.02v17.46h-3.02z"/><path data-name="d" transform="rotate(-41 43.88 45.915)" style="fill:#ff0073" d="M42.37 37.18h3.02v17.46h-3.02z"/><path data-name="d" transform="rotate(-40 43.599 46.143)" style="fill:#ff006f" d="M42.09 37.42h3.02v17.46h-3.02z"/><path data-name="d" transform="rotate(-39 43.32 46.39)" style="fill:#ff006b" d="M41.81 37.65h3.02v17.46h-3.02z"/><path data-name="d" transform="rotate(-38 43.023 46.617)" style="fill:#ff0067" d="M41.52 37.89h3.02v17.46h-3.02z"/><path data-name="d" transform="rotate(-37 42.736 46.834)" style="fill:#ff0062" d="M41.23 38.11h3.02v17.46h-3.02z"/><path data-name="d" transform="rotate(-36 42.433 47.065)" style="fill:#ff005e" d="M40.93 38.33h3.02v17.46h-3.02z"/><path data-name="d" transform="rotate(-35 42.137 47.283)" style="fill:#ff005a" d="M40.63 38.55h3.02v17.46h-3.02z"/><path data-name="d" transform="rotate(-34 41.832 47.482)" style="fill:#ff0056" d="M40.32 38.76h3.02v17.46h-3.02z"/><path data-name="d" transform="rotate(-33 41.522 47.7)" style="fill:#ff0052" d="M40.02 38.96h3.02v17.46h-3.02z"/><path data-name="d" transform="rotate(-32 41.217 47.9)" style="fill:#ff004d" d="M39.71 39.16h3.02v17.46h-3.02z"/><path data-name="d" transform="rotate(-31 40.896 48.077)" style="fill:#ff0049" d="M39.39 39.35h3.02v17.46h-3.02z"/><path data-name="d" transform="rotate(-30 40.585 48.275)" style="fill:#ff0045" d="M39.07 39.54h3.02V57h-3.02z"/><path data-name="d" transform="rotate(-29 40.255 48.446)" style="fill:#ff0041" d="M38.75 39.73h3.02v17.46h-3.02z"/><path data-name="d" transform="rotate(-28 39.932 48.638)" style="fill:#ff003c" d="M38.43 39.9h3.02v17.46h-3.02z"/><path data-name="d" transform="rotate(-27 39.606 48.804)" style="fill:#ff0038" d="M38.1 40.07h3.02v17.46H38.1z"/><path data-name="d" transform="rotate(-26 39.27 48.964)" style="fill:#ff0034" d="M37.77 40.24h3.02V57.7h-3.02z"/><path data-name="d" transform="rotate(-25 38.943 49.12)" style="fill:#ff0030" d="M37.44 40.4h3.02v17.46h-3.02z"/><path data-name="d" transform="rotate(-24 38.597 49.287)" style="fill:#ff002b" d="M37.1 40.55h3.02v17.46H37.1z"/><path data-name="d" transform="rotate(-23 38.264 49.425)" style="fill:#ff0027" d="M36.76 40.7h3.02v17.46h-3.02z"/><path data-name="d" transform="rotate(-22 37.933 49.578)" style="fill:#ff0023" d="M36.42 40.84h3.02V58.3h-3.02z"/><path data-name="d" transform="rotate(-21 37.581 49.715)" style="fill:#ff001f" d="M36.07 40.98h3.02v17.46h-3.02z"/><path data-name="d" transform="rotate(-20 37.233 49.837)" style="fill:#ff001a" d="M35.73 41.11h3.02v17.46h-3.02z"/><path data-name="d" transform="rotate(-19 36.882 49.972)" style="fill:#ff0016" d="M35.38 41.23h3.02v17.46h-3.02z"/><path data-name="d" transform="rotate(-18 36.53 50.088)" style="fill:#ff0012" d="M35.03 41.35h3.02v17.46h-3.02z"/><path data-name="d" transform="rotate(-17 36.178 50.179)" style="fill:#ff000e" d="M34.68 41.46h3.02v17.46h-3.02z"/><path data-name="d" transform="rotate(-16 35.847 50.315)" style="fill:#ff0009" d="M34.32 41.57h3.02v17.46h-3.02z"/><path data-name="d" transform="rotate(-15 35.477 50.417)" style="fill:#ff0005" d="M33.97 41.67h3.02v17.46h-3.02z"/><path data-name="d" transform="rotate(-14 35.137 50.486)" style="fill:#ff0001" d="M33.61 41.76h3.02v17.46h-3.02z"/><path data-name="d" transform="rotate(-13 34.778 50.595)" style="fill:#ff0300" d="M33.25 41.85h3.02v17.46h-3.02z"/><path data-name="d" transform="rotate(-12 34.404 50.655)" style="fill:#ff0700" d="M32.89 41.93h3.02v17.46h-3.02z"/><path data-name="d" transform="rotate(-11 34.052 50.76)" style="fill:#ff0c00" d="M32.53 42.01h3.02v17.46h-3.02z"/><path data-name="d" transform="rotate(-10 33.678 50.802)" style="fill:#ff1000" d="M32.16 42.07h3.02v17.46h-3.02z"/><path data-name="d" transform="rotate(-9 33.327 50.886)" style="fill:#ff1400" d="M31.8 42.13h3.02v17.46H31.8z"/><path data-name="d" transform="rotate(-8 32.939 50.948)" style="fill:#ff1800" d="M31.44 42.19h3.02v17.46h-3.02z"/><path data-name="d" transform="rotate(-7 32.576 50.98)" style="fill:#ff1d00" d="M31.07 42.24h3.02V59.7h-3.02z"/><path data-name="d" transform="rotate(-6 32.243 51.054)" style="fill:#ff2100" d="M30.7 42.28h3.02v17.46H30.7z"/><path data-name="d" transform="rotate(-5 31.847 51.072)" style="fill:#ff2500" d="M30.33 42.32h3.02v17.46h-3.02z"/><path data-name="d" transform="rotate(-4 31.473 51.13)" style="fill:#ff2900" d="M29.96 42.35h3.02v17.46h-3.02z"/><path data-name="d" transform="rotate(-3 31.145 51.068)" style="fill:#ff2e00" d="M29.6 42.37h3.02v17.46H29.6z"/><path data-name="d" transform="rotate(-2 30.624 51.252)" style="fill:#ff3200" d="M29.22 42.39h3.02v17.46h-3.02z"/><path data-name="d" transform="rotate(-1 30.494 51.262)" style="fill:#ff3600" d="M28.86 42.4h3.02v17.46h-3.02z"/><path data-name="d" style="fill:#ff3a00" d="M28.49 42.4h3.02v17.46h-3.02z"/><path data-name="d" transform="rotate(-89 29.628 51.129)" style="fill:#ff3f00" d="M20.9 49.62h17.46v3.02H20.9z"/><path data-name="d" transform="rotate(-88 29.256 51.126)" style="fill:#ff4300" d="M20.53 49.61h17.46v3.02H20.53z"/><path data-name="d" transform="rotate(-87 28.888 51.106)" style="fill:#ff4700" d="M20.16 49.6h17.46v3.02H20.16z"/><path data-name="d" transform="rotate(-86 28.519 51.084)" style="fill:#ff4b00" d="M19.79 49.58h17.46v3.02H19.79z"/><path data-name="d" transform="rotate(-85 28.148 51.06)" style="fill:#ff5000" d="M19.42 49.55h17.46v3.02H19.42z"/><path data-name="d" transform="rotate(-84 27.785 51.02)" style="fill:#ff5400" d="M19.05 49.51h17.46v3.02H19.05z"/><path data-name="d" transform="rotate(-83 27.414 50.983)" style="fill:#ff5800" d="M18.68 49.47h17.46v3.02H18.68z"/><path data-name="d" transform="rotate(-82 27.05 50.931)" style="fill:#ff5c00" d="M18.32 49.42h17.46v3.02H18.32z"/><path data-name="d" transform="rotate(-81 26.677 50.88)" style="fill:#ff6000" d="M17.95 49.37h17.46v3.02H17.95z"/><path data-name="d" transform="rotate(-80 26.316 50.818)" style="fill:#ff6500" d="M17.59 49.31h17.46v3.02H17.59z"/><path data-name="d" transform="rotate(-79 25.95 50.75)" style="fill:#ff6900" d="M17.22 49.24h17.46v3.02H17.22z"/><path data-name="d" transform="rotate(-78 25.59 50.676)" style="fill:#ff6d00" d="M16.86 49.17h17.46v3.02H16.86z"/><path data-name="d" transform="rotate(-77 25.229 50.6)" style="fill:#ff7100" d="M16.5 49.09h17.46v3.02H16.5z"/><path data-name="d" transform="rotate(-76 24.873 50.517)" style="fill:#ff7600" d="M16.14 49.01H33.6v3.02H16.14z"/><path data-name="d" transform="rotate(-75 24.511 50.425)" style="fill:#ff7a00" d="M15.78 48.91h17.46v3.02H15.78z"/><path data-name="d" transform="rotate(-73.7 24.34 50.422)" style="fill:#ff7e00" d="M15.42 48.82h17.46v3.02H15.42z"/><path data-name="d" transform="rotate(-73 23.804 50.219)" style="fill:#ff8200" d="M15.07 48.71h17.46v3.02H15.07z"/><path data-name="d" transform="rotate(-72 23.449 50.115)" style="fill:#ff8700" d="M14.72 48.6h17.46v3.02H14.72z"/><path data-name="d" transform="rotate(-71 23.101 49.994)" style="fill:#ff8b00" d="M14.37 48.49h17.46v3.02H14.37z"/><path data-name="d" transform="rotate(-70 22.746 49.874)" style="fill:#ff8f00" d="M14.02 48.36h17.46v3.02H14.02z"/><path data-name="d" transform="rotate(-69 22.404 49.739)" style="fill:#ff9300" d="M13.67 48.23h17.46v3.02H13.67z"/><path data-name="d" transform="rotate(-68 22.061 49.61)" style="fill:#ff9800" d="M13.33 48.1h17.46v3.02H13.33z"/><path data-name="d" transform="rotate(-67 21.72 49.465)" style="fill:#ff9c00" d="M12.98 47.96h17.46v3.02H12.98z"/><path data-name="d" transform="rotate(-66 21.38 49.318)" style="fill:#ffa000" d="M12.65 47.81h17.46v3.02H12.65z"/><path data-name="d" transform="rotate(-65 21.044 49.167)" style="fill:#ffa400" d="M12.31 47.66h17.46v3.02H12.31z"/><path data-name="d" transform="rotate(-64 20.71 49.011)" style="fill:#ffa900" d="M11.98 47.5h17.46v3.02H11.98z"/><path data-name="d" transform="rotate(-63 20.37 48.846)" style="fill:#ffad00" d="M11.64 47.34H29.1v3.02H11.64z"/><path data-name="d" transform="rotate(-62 20.045 48.671)" style="fill:#ffb100" d="M11.32 47.17h17.46v3.02H11.32z"/><path data-name="d" transform="rotate(-61 19.716 48.498)" style="fill:#ffb500" d="M10.99 46.99h17.46v3.02H10.99z"/><path data-name="d" transform="rotate(-60 19.402 48.314)" style="fill:#ffb900" d="M10.67 46.81h17.46v3.02H10.67z"/><path data-name="d" transform="rotate(-59 19.085 48.13)" style="fill:#ffbe00" d="M10.35 46.62h17.46v3.02H10.35z"/><path data-name="d" transform="rotate(-58 18.768 47.936)" style="fill:#ffc200" d="M10.03 46.43h17.46v3.02H10.03z"/><path data-name="d" transform="rotate(-57 18.455 47.747)" style="fill:#ffc600" d="M9.72 46.23h17.46v3.02H9.72z"/><path data-name="d" transform="rotate(-56 18.148 47.537)" style="fill:#ffca00" d="M9.41 46.03h17.46v3.02H9.41z"/><path data-name="d" transform="rotate(-55 17.835 47.324)" style="fill:#ffcf00" d="M9.11 45.82h17.46v3.02H9.11z"/><path data-name="d" transform="rotate(-54 17.537 47.118)" style="fill:#ffd300" d="M8.81 45.6h17.46v3.02H8.81z"/><path data-name="d" transform="rotate(-53 17.237 46.897)" style="fill:gold" d="M8.51 45.39h17.46v3.02H8.51z"/><path data-name="d" transform="rotate(-52 16.947 46.666)" style="fill:#ffdb00" d="M8.22 45.16h17.46v3.02H8.22z"/><path data-name="d" transform="rotate(-51 16.656 46.444)" style="fill:#ffe000" d="M7.93 44.93h17.46v3.02H7.93z"/><path data-name="d" transform="rotate(-50 16.374 46.21)" style="fill:#ffe400" d="M7.64 44.7H25.1v3.02H7.64z"/><path data-name="d" transform="rotate(-49 16.085 45.968)" style="fill:#ffe800" d="M7.36 44.46h17.46v3.02H7.36z"/><path data-name="d" transform="rotate(-48 15.812 45.727)" style="fill:#ffec00" d="M7.08 44.21h17.46v3.02H7.08z"/><path data-name="d" transform="rotate(-47 15.531 45.476)" style="fill:#fff100" d="M6.81 43.96h17.46v3.02H6.81z"/><path data-name="d" transform="rotate(-46 15.266 45.224)" style="fill:#fff500" d="M6.54 43.71H24v3.02H6.54z"/><path data-name="d" transform="rotate(-45 15.005 44.965)" style="fill:#fff900" d="M6.27 43.45h17.46v3.02H6.27z"/><path data-name="d" transform="rotate(-44 14.749 44.697)" style="fill:#fffd00" d="M6.02 43.19h17.46v3.02H6.02z"/><path data-name="d" transform="rotate(-43 14.492 44.433)" style="fill:#fcff00" d="M5.76 42.92h17.46v3.02H5.76z"/><path data-name="d" transform="rotate(-42 14.24 44.158)" style="fill:#f8ff00" d="M5.51 42.65h17.46v3.02H5.51z"/><path data-name="d" transform="rotate(-41 13.986 43.884)" style="fill:#f4ff00" d="M5.26 42.37h17.46v3.02H5.26z"/><path data-name="d" transform="rotate(-40 13.751 43.602)" style="fill:#f0ff00" d="M5.02 42.09h17.46v3.02H5.02z"/><path data-name="d" transform="rotate(-39 13.516 43.32)" style="fill:#ecff00" d="M4.79 41.81h17.46v3.02H4.79z"/><path data-name="d" transform="rotate(-38 13.286 43.021)" style="fill:#e7ff00" d="M4.56 41.52h17.46v3.02H4.56z"/><path data-name="d" transform="rotate(-37 13.067 42.74)" style="fill:#e3ff00" d="M4.33 41.23h17.46v3.02H4.33z"/><path data-name="d" transform="rotate(-35.9 12.911 42.276)" style="fill:#dfff00" d="M4.11 40.93h17.46v3.02H4.11z"/><path data-name="d" transform="rotate(-35 12.62 42.143)" style="fill:#dbff00" d="M3.9 40.63h17.46v3.02H3.9z"/><path data-name="d" transform="rotate(-34 12.425 41.836)" style="fill:#d6ff00" d="M3.69 40.33h17.46v3.02H3.69z"/><path data-name="d" transform="rotate(-33 12.21 41.532)" style="fill:#d2ff00" d="M3.48 40.02h17.46v3.02H3.48z"/><path data-name="d" transform="rotate(-32 12.018 41.207)" style="fill:#ceff00" d="M3.28 39.71h17.46v3.02H3.28z"/><path data-name="d" transform="rotate(-31 11.82 40.906)" style="fill:#caff00" d="M3.09 39.39h17.46v3.02H3.09z"/><path data-name="d" transform="rotate(-30 11.628 40.576)" style="fill:#c5ff00" d="M2.9 39.07h17.46v3.02H2.9z"/><path data-name="d" transform="rotate(-29 11.454 40.255)" style="fill:#c1ff00" d="M2.72 38.75h17.46v3.02H2.72z"/><path data-name="d" transform="rotate(-28 11.279 39.939)" style="fill:#bdff00" d="M2.54 38.43H20v3.02H2.54z"/><path data-name="d" transform="rotate(-27 11.109 39.606)" style="fill:#b9ff00" d="M2.37 38.1h17.46v3.02H2.37z"/><path data-name="d" transform="rotate(-26 10.939 39.275)" style="fill:#b4ff00" d="M2.2 37.77h17.46v3.02H2.2z"/><path data-name="d" transform="rotate(-25 10.769 38.945)" style="fill:#b0ff00" d="M2.04 37.44H19.5v3.02H2.04z"/><path data-name="d" transform="rotate(-24 10.624 38.62)" style="fill:#acff00" d="M1.89 37.1h17.46v3.02H1.89z"/><path data-name="d" transform="rotate(-23 10.463 38.266)" style="fill:#a8ff00" d="M1.74 36.76H19.2v3.02H1.74z"/><path data-name="d" transform="rotate(-22 10.324 37.938)" style="fill:#a3ff00" d="M1.6 36.42h17.46v3.02H1.6z"/><path data-name="d" transform="rotate(-21 10.196 37.58)" style="fill:#9fff00" d="M1.46 36.08h17.46v3.02H1.46z"/><path data-name="d" transform="rotate(-20 10.07 37.241)" style="fill:#9bff00" d="M1.33 35.73h17.46v3.02H1.33z"/><path data-name="d" transform="rotate(-19 9.951 36.896)" style="fill:#97ff00" d="M1.21 35.38h17.46v3.02H1.21z"/><path data-name="d" transform="rotate(-18 9.811 36.536)" style="fill:#93ff00" d="M1.09 35.03h17.46v3.02H1.09z"/><path data-name="d" transform="rotate(-16.8 9.85 36.49)" style="fill:#8eff00" d="M.98 34.68h17.46v3.02H.98z"/><path data-name="d" transform="rotate(-16 9.587 35.813)" style="fill:#8aff00" d="M.87 34.32h17.46v3.02H.87z"/><path data-name="d" transform="rotate(-15 9.508 35.484)" style="fill:#86ff00" d="M.77 33.97h17.46v3.02H.77z"/><path data-name="d" transform="rotate(-14 9.41 35.133)" style="fill:#82ff00" d="M.68 33.61h17.46v3.02H.68z"/><path data-name="d" transform="rotate(-13 9.331 34.76)" style="fill:#7dff00" d="M.59 33.25h17.46v3.02H.59z"/><path data-name="d" transform="rotate(-12 9.227 34.397)" style="fill:#79ff00" d="M.51 32.89h17.46v3.02H.51z"/><path data-name="d" transform="rotate(-11 9.142 34.055)" style="fill:#75ff00" d="M.44 32.53H17.9v3.02H.44z"/><path data-name="d" transform="rotate(-10 9.09 33.678)" style="fill:#71ff00" d="M.37 32.17h17.46v3.02H.37z"/><path data-name="d" transform="rotate(-9 9.013 33.31)" style="fill:#6cff00" d="M.31 31.8h17.46v3.02H.31z"/><path data-name="d" transform="rotate(-8 8.976 32.961)" style="fill:#68ff00" d="M.25 31.43h17.46v3.02H.25z"/><path data-name="d" transform="rotate(-7 8.923 32.547)" style="fill:#64ff00" d="M.2 31.07h17.46v3.02H.2z"/><path data-name="d" transform="rotate(-6 8.93 32.23)" style="fill:#60ff00" d="M.16 30.7h17.46v3.02H.16z"/><path data-name="d" transform="rotate(-5 8.822 31.823)" style="fill:#5bff00" d="M.12 30.33h17.46v3.02H.12z"/><path data-name="d" transform="rotate(-4 8.795 31.415)" style="fill:#57ff00" d="M.09 29.97h17.46v3.02H.09z"/><path data-name="d" transform="rotate(-3 8.737 31.183)" style="fill:#53ff00" d="M.07 29.6h17.46v3.02H.07z"/><path data-name="d" transform="rotate(-2 8.918 30.815)" style="fill:#4fff00" d="M.05 29.23h17.46v3.02H.05z"/><path data-name="d" transform="rotate(-1 8.902 30.446)" style="fill:#4aff00" d="M.04 28.86H17.5v3.02H.04z"/><path data-name="d" style="fill:#46ff00" d="M.04 28.49H17.5v3.02H.04z"/><path data-name="d" transform="rotate(-88.9 8.825 29.648)" style="fill:#42ff00" d="M7.26 20.9h3.02v17.46H7.26z"/><path data-name="d" transform="rotate(-88 8.782 29.254)" style="fill:#3eff00" d="M7.27 20.53h3.02v17.46H7.27z"/><path data-name="d" transform="rotate(-87 8.797 28.887)" style="fill:#3aff00" d="M7.29 20.16h3.02v17.46H7.29z"/><path data-name="d" transform="rotate(-86 8.818 28.523)" style="fill:#35ff00" d="M7.31 19.79h3.02v17.46H7.31z"/><path data-name="d" transform="rotate(-85 8.846 28.152)" style="fill:#31ff00" d="M7.34 19.42h3.02v17.46H7.34z"/><path data-name="d" transform="rotate(-84 8.88 27.783)" style="fill:#2dff00" d="M7.37 19.05h3.02v17.46H7.37z"/><path data-name="d" transform="rotate(-83 8.92 27.418)" style="fill:#29ff00" d="M7.41 18.69h3.02v17.46H7.41z"/><path data-name="d" transform="rotate(-82 8.974 27.048)" style="fill:#24ff00" d="M7.46 18.32h3.02v17.46H7.46z"/><path data-name="d" transform="rotate(-81 9.024 26.68)" style="fill:#20ff00" d="M7.52 17.95h3.02v17.46H7.52z"/><path data-name="d" transform="rotate(-80 9.082 26.315)" style="fill:#1cff00" d="M7.58 17.59h3.02v17.46H7.58z"/><path data-name="d" transform="rotate(-79 9.155 25.955)" style="fill:#18ff00" d="M7.64 17.22h3.02v17.46H7.64z"/><path data-name="d" transform="rotate(-78 9.22 25.592)" style="fill:#13ff00" d="M7.72 16.86h3.02v17.46H7.72z"/><path data-name="d" transform="rotate(-77 9.305 25.229)" style="fill:#0fff00" d="M7.8 16.5h3.02v17.46H7.8z"/><path data-name="d" transform="rotate(-76 9.389 24.866)" style="fill:#0bff00" d="M7.88 16.14h3.02V33.6H7.88z"/><path data-name="d" transform="rotate(-75 9.484 24.514)" style="fill:#07ff00" d="M7.97 15.78h3.02v17.46H7.97z"/><path data-name="d" transform="rotate(-74 9.583 24.157)" style="fill:#02ff00" d="M8.07 15.43h3.02v17.46H8.07z"/><path data-name="d" transform="rotate(-73 9.681 23.8)" style="fill:#00ff02" d="M8.17 15.07h3.02v17.46H8.17z"/><path data-name="d" transform="rotate(-72 9.798 23.448)" style="fill:#00ff06" d="M8.28 14.72h3.02v17.46H8.28z"/><path data-name="d" transform="rotate(-71 9.91 23.102)" style="fill:#00ff0a" d="M8.4 14.37h3.02v17.46H8.4z"/><path data-name="d" transform="rotate(-70 10.033 22.754)" style="fill:#00ff0f" d="M8.52 14.02h3.02v17.46H8.52z"/><path data-name="d" transform="rotate(-69 10.163 22.399)" style="fill:#00ff13" d="M8.65 13.67h3.02v17.46H8.65z"/><path data-name="d" transform="rotate(-68 10.296 22.055)" style="fill:#00ff17" d="M8.79 13.33h3.02v17.46H8.79z"/><path data-name="d" transform="rotate(-67 10.439 21.716)" style="fill:#00ff1b" d="M8.93 12.99h3.02v17.46H8.93z"/><path data-name="d" transform="rotate(-66 10.583 21.377)" style="fill:#00ff1f" d="M9.08 12.65h3.02v17.46H9.08z"/><path data-name="d" transform="rotate(-65 10.737 21.04)" style="fill:#00ff24" d="M9.23 12.31h3.02v17.46H9.23z"/><path data-name="d" transform="rotate(-64 10.895 20.704)" style="fill:#00ff28" d="M9.39 11.98h3.02v17.46H9.39z"/><path data-name="d" transform="rotate(-63 11.058 20.379)" style="fill:#00ff2c" d="M9.55 11.65h3.02v17.46H9.55z"/><path data-name="d" transform="rotate(-62 11.23 20.044)" style="fill:#00ff30" d="M9.72 11.32h3.02v17.46H9.72z"/><path data-name="d" transform="rotate(-61 11.41 19.721)" style="fill:#00ff35" d="M9.9 10.99h3.02v17.46H9.9z"/><path data-name="d" transform="rotate(-60 11.582 19.4)" style="fill:#00ff39" d="M10.08 10.67h3.02v17.46h-3.02z"/><path data-name="d" transform="rotate(-59 11.776 19.087)" style="fill:#00ff3d" d="M10.26 10.35h3.02v17.46h-3.02z"/><path data-name="d" transform="rotate(-58 11.966 18.767)" style="fill:#00ff41" d="M10.46 10.03h3.02v17.46h-3.02z"/><path data-name="d" transform="rotate(-57 12.158 18.454)" style="fill:#00ff46" d="M10.66 9.72h3.02v17.46h-3.02z"/><path data-name="d" transform="rotate(-56 12.367 18.143)" style="fill:#00ff4a" d="M10.86 9.41h3.02v17.46h-3.02z"/><path data-name="d" transform="rotate(-55 12.577 17.84)" style="fill:#00ff4e" d="M11.07 9.11h3.02v17.46h-3.02z"/><path data-name="d" transform="rotate(-54 12.791 17.543)" style="fill:#00ff52" d="M11.28 8.81h3.02v17.46h-3.02z"/><path data-name="d" transform="rotate(-53 13.004 17.24)" style="fill:#00ff57" d="M11.5 8.51h3.02v17.46H11.5z"/><path data-name="d" transform="rotate(-52 13.231 16.948)" style="fill:#00ff5b" d="M11.72 8.22h3.02v17.46h-3.02z"/><path data-name="d" transform="rotate(-51 13.468 16.654)" style="fill:#00ff5f" d="M11.95 7.93h3.02v17.46h-3.02z"/><path data-name="d" transform="rotate(-50 13.696 16.373)" style="fill:#00ff63" d="M12.19 7.64h3.02V25.1h-3.02z"/><path data-name="d" transform="rotate(-49 13.934 16.09)" style="fill:#00ff68" d="M12.43 7.36h3.02v17.46h-3.02z"/><path data-name="d" transform="rotate(-48 14.18 15.814)" style="fill:#00ff6c" d="M12.67 7.08h3.02v17.46h-3.02z"/><path data-name="d" transform="rotate(-47 14.434 15.546)" style="fill:#00ff70" d="M12.92 6.81h3.02v17.46h-3.02z"/><path data-name="d" transform="rotate(-46 14.69 15.272)" style="fill:#00ff74" d="M13.18 6.54h3.02V24h-3.02z"/><path data-name="d" transform="rotate(-45 14.943 15)" style="fill:#00ff78" d="M13.43 6.28h3.02v17.46h-3.02z"/><path data-name="d" transform="rotate(-44 15.202 14.75)" style="fill:#00ff7d" d="M13.7 6.02h3.02v17.46H13.7z"/><path data-name="d" transform="rotate(-43 15.477 14.498)" style="fill:#00ff81" d="M13.97 5.76h3.02v17.46h-3.02z"/><path data-name="d" transform="rotate(-42.3 15.649 14.252)" style="fill:#00ff85" d="M14.24 5.51h3.02v17.46h-3.02z"/><path data-name="d" transform="rotate(-41 16.017 13.99)" style="fill:#00ff89" d="M14.51 5.26h3.02v17.46h-3.02z"/><path data-name="d" transform="rotate(-40 16.305 13.76)" style="fill:#00ff8e" d="M14.79 5.02h3.02v17.46h-3.02z"/><path data-name="d" transform="rotate(-39 16.586 13.517)" style="fill:#00ff92" d="M15.08 4.79h3.02v17.46h-3.02z"/><path data-name="d" transform="rotate(-38 16.882 13.285)" style="fill:#00ff96" d="M15.37 4.56h3.02v17.46h-3.02z"/><path data-name="d" transform="rotate(-37 17.167 13.055)" style="fill:#00ff9a" d="M15.66 4.33h3.02v17.46h-3.02z"/><path data-name="d" transform="rotate(-35.9 17.452 12.756)" style="fill:#00ff9f" d="M15.96 4.11h3.02v17.46h-3.02z"/><path data-name="d" transform="rotate(-35 17.76 12.626)" style="fill:#00ffa3" d="M16.26 3.9h3.02v17.46h-3.02z"/><path data-name="d" transform="rotate(-34 18.076 12.411)" style="fill:#00ffa7" d="M16.56 3.69h3.02v17.46h-3.02z"/><path data-name="d" transform="rotate(-33 18.377 12.219)" style="fill:#00ffab" d="M16.87 3.48h3.02v17.46h-3.02z"/><path data-name="d" transform="rotate(-32 18.689 12.02)" style="fill:#00ffb0" d="M17.18 3.28h3.02v17.46h-3.02z"/><path data-name="d" transform="rotate(-31 19.013 11.816)" style="fill:#00ffb4" d="M17.5 3.09h3.02v17.46H17.5z"/><path data-name="d" transform="rotate(-30 19.322 11.637)" style="fill:#00ffb8" d="M17.81 2.9h3.02v17.46h-3.02z"/><path data-name="d" transform="rotate(-29 19.645 11.454)" style="fill:#00ffbc" d="M18.14 2.72h3.02v17.46h-3.02z"/><path data-name="d" transform="rotate(-28 19.963 11.26)" style="fill:#00ffc1" d="M18.46 2.54h3.02V20h-3.02z"/><path data-name="d" transform="rotate(-27 20.286 11.104)" style="fill:#00ffc5" d="M18.79 2.37h3.02v17.46h-3.02z"/><path data-name="d" transform="rotate(-26 20.627 10.944)" style="fill:#00ffc9" d="M19.12 2.2h3.02v17.46h-3.02z"/><path data-name="d" transform="rotate(-25 20.965 10.776)" style="fill:#00ffcd" d="M19.45 2.04h3.02V19.5h-3.02z"/><path data-name="d" transform="rotate(-24 21.295 10.624)" style="fill:#00ffd1" d="M19.79 1.89h3.02v17.46h-3.02z"/><path data-name="d" transform="rotate(-23 21.646 10.47)" style="fill:#00ffd6" d="M20.13 1.74h3.02V19.2h-3.02z"/><path data-name="d" transform="rotate(-22 21.964 10.33)" style="fill:#00ffda" d="M20.47 1.6h3.02v17.46h-3.02z"/><path data-name="d" transform="rotate(-21 22.332 10.194)" style="fill:#00ffde" d="M20.81 1.46h3.02v17.46h-3.02z"/><path data-name="d" transform="rotate(-20 22.666 10.078)" style="fill:#00ffe2" d="M21.16 1.33h3.02v17.46h-3.02z"/><path data-name="d" transform="rotate(-19 23.003 9.931)" style="fill:#00ffe7" d="M21.51 1.21h3.02v17.46h-3.02z"/><path data-name="d" transform="rotate(-18 23.363 9.816)" style="fill:#00ffeb" d="M21.86 1.09h3.02v17.46h-3.02z"/><path data-name="d" transform="rotate(-17 23.723 9.702)" style="fill:#00ffef" d="M22.21.98h3.02v17.46h-3.02z"/><path data-name="d" transform="rotate(-16 24.084 9.589)" style="fill:#00fff3" d="M22.56.87h3.02v17.46h-3.02z"/><path data-name="d" transform="rotate(-15 24.44 9.516)" style="fill:#00fff8" d="M22.92.77h3.02v17.46h-3.02z"/><path data-name="d" transform="rotate(-14 24.803 9.411)" style="fill:#00fffc" d="M23.28.68h3.02v17.46h-3.02z"/><path data-name="d" transform="rotate(-13 25.167 9.313)" style="fill:#00feff" d="M23.64.59h3.02v17.46h-3.02z"/><path data-name="d" transform="rotate(-12 25.485 9.22)" style="fill:#00faff" d="M24 .51h3.02v17.46H24z"/><path data-name="d" transform="rotate(-11 25.848 9.145)" style="fill:#00f5ff" d="M24.36.44h3.02V17.9h-3.02z"/><path data-name="d" transform="rotate(-10 26.213 9.089)" style="fill:#00f1ff" d="M24.72.37h3.02v17.46h-3.02z"/><path data-name="d" transform="rotate(-9 26.583 9.06)" style="fill:#00edff" d="M25.09.31h3.02v17.46h-3.02z"/><path data-name="d" transform="rotate(-8 26.962 8.999)" style="fill:#00e9ff" d="M25.45.25h3.02v17.46h-3.02z"/><path data-name="d" transform="rotate(-7 27.35 8.976)" style="fill:#00e4ff" d="M25.82.2h3.02v17.46h-3.02z"/><path data-name="d" transform="rotate(-6 27.66 8.912)" style="fill:#00e0ff" d="M26.19.16h3.02v17.46h-3.02z"/><path data-name="d" transform="rotate(-5 28.066 8.913)" style="fill:#00dcff" d="M26.55.13h3.02v17.46h-3.02z"/><path data-name="d" transform="rotate(-4 28.361 8.875)" style="fill:#00d8ff" d="M26.92.09h3.02v17.46h-3.02z"/><path data-name="d" transform="rotate(-3 28.813 8.78)" style="fill:#00d4ff" d="M27.29.07h3.02v17.46h-3.02z"/><path data-name="d" transform="rotate(-2 29.073 8.817)" style="fill:#00cfff" d="M27.66.06h3.02v17.46h-3.02z"/><path data-name="d" transform="rotate(-1 29.718 8.854)" style="fill:#00cbff" d="M28.03.04h3.02V17.5h-3.02z"/><path data-name="d" style="fill:#00c7ff" d="M28.4.04h3.02V17.5H28.4z"/><path data-name="d" transform="rotate(-89 30.277 8.77)" style="fill:#00c3ff" d="M21.55 7.26h17.46v3.02H21.55z"/><path data-name="d" transform="rotate(-88 30.645 8.78)" style="fill:#00beff" d="M21.92 7.27h17.46v3.02H21.92z"/><path data-name="d" transform="rotate(-87 31.017 8.796)" style="fill:#00baff" d="M22.29 7.29h17.46v3.02H22.29z"/><path data-name="d" transform="rotate(-86 31.385 8.817)" style="fill:#00b6ff" d="M22.65 7.31h17.46v3.02H22.65z"/><path data-name="d" transform="rotate(-85 31.753 8.85)" style="fill:#00b2ff" d="M23.02 7.34h17.46v3.02H23.02z"/><path data-name="d" transform="matrix(.1 -.99 .99 .1 19.93 39.9)" style="fill:#00adff" d="M23.39 7.37h17.46v3.02H23.39z"/><path data-name="d" transform="rotate(-83 32.486 8.924)" style="fill:#00a9ff" d="M23.76 7.41h17.46v3.02H23.76z"/><path data-name="d" transform="rotate(-82 32.857 8.971)" style="fill:#00a5ff" d="M24.13 7.46h17.46v3.02H24.13z"/><path data-name="d" transform="rotate(-81 33.224 9.028)" style="fill:#00a1ff" d="M24.49 7.52h17.46v3.02H24.49z"/><path data-name="d" transform="rotate(-80 33.586 9.082)" style="fill:#009cff" d="M24.86 7.58h17.46v3.02H24.86z"/><path data-name="d" transform="rotate(-79 33.95 9.15)" style="fill:#0098ff" d="M25.22 7.64h17.46v3.02H25.22z"/><path data-name="d" transform="rotate(-78 34.315 9.222)" style="fill:#0094ff" d="M25.58 7.72h17.46v3.02H25.58z"/><path data-name="d" transform="rotate(-77 34.677 9.305)" style="fill:#0090ff" d="M25.94 7.8H43.4v3.02H25.94z"/><path data-name="d" transform="rotate(-76 35.034 9.388)" style="fill:#008bff" d="M26.3 7.88h17.46v3.02H26.3z"/><path data-name="d" transform="rotate(-75 35.388 9.482)" style="fill:#0087ff" d="M26.66 7.97h17.46v3.02H26.66z"/><path data-name="d" transform="rotate(-73.7 35.878 9.523)" style="fill:#0083ff" d="M27.02 8.07h17.46v3.02H27.02z"/><path data-name="d" transform="rotate(-73 36.106 9.683)" style="fill:#007fff" d="M27.37 8.18h17.46v3.02H27.37z"/><path data-name="d" transform="rotate(-72 36.459 9.792)" style="fill:#007bff" d="M27.72 8.29h17.46v3.02H27.72z"/><path data-name="d" transform="rotate(-71 36.801 9.91)" style="fill:#0076ff" d="M28.08 8.4h17.46v3.02H28.08z"/><path data-name="d" transform="rotate(-70 37.158 10.035)" style="fill:#0072ff" d="M28.42 8.52h17.46v3.02H28.42z"/><path data-name="d" transform="rotate(-69 37.498 10.165)" style="fill:#006eff" d="M28.77 8.65h17.46v3.02H28.77z"/><path data-name="d" transform="rotate(-68 37.845 10.298)" style="fill:#006aff" d="M29.11 8.79h17.46v3.02H29.11z"/><path data-name="d" transform="rotate(-67 38.187 10.436)" style="fill:#0065ff" d="M29.46 8.93h17.46v3.02H29.46z"/><path data-name="d" transform="rotate(-66 38.532 10.585)" style="fill:#0061ff" d="M29.8 9.08h17.46v3.02H29.8z"/><path data-name="d" transform="rotate(-65 38.863 10.735)" style="fill:#005dff" d="M30.13 9.23h17.46v3.02H30.13z"/><path data-name="d" transform="rotate(-64 39.197 10.897)" style="fill:#0059ff" d="M30.47 9.39h17.46v3.02H30.47z"/><path data-name="d" transform="rotate(-63 39.53 11.06)" style="fill:#0054ff" d="M30.8 9.55h17.46v3.02H30.8z"/><path data-name="d" transform="rotate(-62 39.858 11.23)" style="fill:#0050ff" d="M31.13 9.72h17.46v3.02H31.13z"/><path data-name="d" transform="rotate(-61 40.184 11.402)" style="fill:#004cff" d="M31.45 9.9h17.46v3.02H31.45z"/><path data-name="d" transform="rotate(-60 40.504 11.584)" style="fill:#0048ff" d="M31.77 10.08h17.46v3.02H31.77z"/><path data-name="d" transform="rotate(-59 40.824 11.769)" style="fill:#0043ff" d="M32.09 10.27h17.46v3.02H32.09z"/><path data-name="d" transform="rotate(-58 41.136 11.965)" style="fill:#003fff" d="M32.41 10.46h17.46v3.02H32.41z"/><path data-name="d" transform="rotate(-57 41.447 12.166)" style="fill:#003bff" d="M32.72 10.66h17.46v3.02H32.72z"/><path data-name="d" transform="rotate(-56 41.755 12.371)" style="fill:#0037ff" d="M33.03 10.86h17.46v3.02H33.03z"/><path data-name="d" transform="rotate(-55 42.067 12.572)" style="fill:#0032ff" d="M33.33 11.07h17.46v3.02H33.33z"/><path data-name="d" transform="rotate(-54 42.37 12.788)" style="fill:#002eff" d="M33.64 11.28H51.1v3.02H33.64z"/><path data-name="d" transform="rotate(-53 42.662 13.006)" style="fill:#002aff" d="M33.93 11.5h17.46v3.02H33.93z"/><path data-name="d" transform="rotate(-52 42.96 13.237)" style="fill:#0026ff" d="M34.23 11.73h17.46v3.02H34.23z"/><path data-name="d" transform="rotate(-51 43.248 13.461)" style="fill:#02f" d="M34.52 11.96h17.46v3.02H34.52z"/><path d="M30.84 58.86h-1.72a.63.63 0 0 0-.24 0c-.91 0-1.82-.12-2.72-.24a27.9 27.9 0 0 1-4.95-1.11 28.91 28.91 0 0 1-7.74-3.81A28.82 28.82 0 0 1 1.12 31.88a1.54 1.54 0 0 0-.12-.46v-3a1.42 1.42 0 0 0 .12-.42 28.76 28.76 0 0 1 6.77-16.73 29 29 0 0 1 4.84-4.55 28.84 28.84 0 0 1 14.81-5.6 6.09 6.09 0 0 0 .95-.12h2.93a3.16 3.16 0 0 0 .68.05 33.66 33.66 0 0 1 3.47.48 28.4 28.4 0 0 1 10 4.05A28.84 28.84 0 0 1 52 11.21a28.73 28.73 0 0 1 6.37 13.3 23.54 23.54 0 0 1 .46 4.27 2.85 2.85 0 0 0 0 .29v1.71a1.31 1.31 0 0 0 0 .34 7.58 7.58 0 0 1 0 .83 29.62 29.62 0 0 1-.83 5.21 29.14 29.14 0 0 1-8.91 14.48A29.41 29.41 0 0 1 43 55.75a28.8 28.8 0 0 1-11.24 3c-.29 0-.6 0-.89.09z" style="fill:#383838"/><path d="M22.43 18a6 6 0 0 0 .23 1.69A12 12 0 0 0 24 22.72a28.76 28.76 0 0 0 4.81 5.77 2.06 2.06 0 0 0 .52.35.63.63 0 0 0 .58 0 1.92 1.92 0 0 0 .5-.36c.63-.65 1.25-1.31 1.85-2a32.78 32.78 0 0 0 2.36-3 15.07 15.07 0 0 0 1.68-3.05 6.84 6.84 0 0 0 .5-3.38 7.65 7.65 0 0 0-2.44-4.87 6.77 6.77 0 0 0-5.82-1.79A7.51 7.51 0 0 0 22.43 18z" style="fill:url(#a)"/><path d="M40.91 44.41a7.16 7.16 0 0 1-1.46-.15 6.43 6.43 0 0 1-3.74-2.21 14 14 0 0 1-1.51-2.37 23.48 23.48 0 0 1-1.3-3 31.33 31.33 0 0 1-1.12-3.84 1 1 0 0 1 .82-1.43c1-.32 2.06-.6 3.1-.83A21.28 21.28 0 0 1 41 30a12.67 12.67 0 0 1 1.51.16 6.51 6.51 0 0 1 3.67 2 7.1 7.1 0 0 1 2 6.38 7.25 7.25 0 0 1-7.27 5.87z" style="fill:url(#b)"/><path d="M18.41 44.41a7.16 7.16 0 0 0 1.46-.15 6.37 6.37 0 0 0 3.73-2.21 14 14 0 0 0 1.52-2.37 24 24 0 0 0 1.29-3 31.37 31.37 0 0 0 1.13-3.84 1 1 0 0 0-.83-1.43c-1-.32-2.05-.6-3.1-.83a21.18 21.18 0 0 0-5.27-.58 12.89 12.89 0 0 0-1.51.16 6.57 6.57 0 0 0-3.67 2 7.1 7.1 0 0 0-2 6.38 7.25 7.25 0 0 0 7.25 5.87z" style="fill:url(#c)"/></g></g></svg>