<svg xmlns="http://www.w3.org/2000/svg" viewBox="0 0 2500 2500" style="enable-background:new 0 0 2500 2500" xml:space="preserve"><path d="M833.3 2500c230 0 416.7-186.7 416.7-416.7v-416.7H833.3c-230 0-416.7 186.7-416.7 416.7S603.3 2500 833.3 2500z" style="fill:#0acf83"/><path d="M416.7 1250c0-230 186.7-416.7 416.7-416.7H1250v833.3H833.3c-230 .1-416.6-186.6-416.6-416.6z" style="fill:#a259ff"/><path d="M416.7 416.7C416.7 186.7 603.3 0 833.3 0H1250v833.3H833.3c-230 0-416.6-186.6-416.6-416.6z" style="fill:#f24e1e"/><path d="M1250 0h416.7c230 0 416.7 186.7 416.7 416.7s-186.7 416.7-416.7 416.7H1250V0z" style="fill:#ff7262"/><path d="M2083.3 1250c0 230-186.7 416.7-416.7 416.7S1250 1480 1250 1250s186.7-416.7 416.7-416.7 416.6 186.7 416.6 416.7z" style="fill:#1abcfe"/></svg>