<?xml version="1.0" encoding="utf-8"?>
<!-- Generator: Adobe Illustrator 26.0.3, SVG Export Plug-In . SVG Version: 6.00 Build 0)  -->
<svg version="1.1" id="Layer_1" xmlns="http://www.w3.org/2000/svg" xmlns:xlink="http://www.w3.org/1999/xlink" x="0px" y="0px"
	 viewBox="0 0 132 132" style="enable-background:new 0 0 132 132;" xml:space="preserve">
<style type="text/css">
	.st0{fill:#FFA000;}
	.st1{fill:#F57C00;}
	.st2{fill:#FFCA28;}
	.st3{fill:#FFFFFF;fill-opacity:0.2;}
	.st4{opacity:0.2;fill:#A52714;enable-background:new    ;}
	.st5{fill:url(#b_00000093870425496166978930000001239392356359635331_);}
</style>
<path class="st0" d="M19.6,106.2L35.7,3c0.2-1.3,1.2-2.3,2.4-2.5s2.5,0.4,3.1,1.5L58,33.2l6.7-12.7c0.5-1,1.5-1.6,2.6-1.6
	s2.1,0.6,2.6,1.6l45,85.7L19.6,106.2L19.6,106.2z"/>
<path class="st1" d="M75.3,66L58,33.1l-38.4,73.1L75.3,66z"/>
<path class="st2" d="M114.9,106.2l-12.4-76.5c-0.2-1.1-1-2-2-2.3s-2.2-0.1-3,0.7l-77.9,78.1l43.1,24.2c2.7,1.5,6,1.5,8.7,0
	L114.9,106.2L114.9,106.2z"/>
<path class="st3" d="M102.6,29.8c-0.2-1.1-1-2-2-2.3s-2.2-0.1-3,0.7L82.1,43.7L69.9,20.5c-0.5-1-1.5-1.6-2.6-1.6s-2.1,0.6-2.6,1.6
	L58,33.2L41.3,2c-0.6-1.1-1.9-1.7-3.1-1.5S35.9,1.7,35.7,3L19.6,106.2h-0.1l0.1,0.1l0.4,0.2l77.5-77.6c0.8-0.8,2-1.1,3-0.7
	s1.8,1.2,2,2.3l12.3,75.8l0.1-0.1L102.6,29.8L102.6,29.8z M19.8,106.1l16-102.3c0.2-1.3,1.2-2.3,2.4-2.5s2.5,0.4,3.1,1.5L58,33.9
	l6.7-12.7c0.5-1,1.5-1.6,2.6-1.6s2.1,0.6,2.6,1.6l11.9,22.7L19.8,106.1L19.8,106.1z"/>
<path class="st4" d="M71.4,129.7c-2.7,1.5-6,1.5-8.7,0l-43-24.1l-0.1,0.7l43.1,24.2c2.7,1.5,6,1.5,8.7,0l43.5-24.2l-0.1-0.7
	L71.4,129.7L71.4,129.7z"/>
<g>
	
		<linearGradient id="b_00000121262752240183630900000006805185709685580201_" gradientUnits="userSpaceOnUse" x1="-673.4163" y1="440.513" x2="-672.373" y2="439.7542" gradientTransform="matrix(95 0 0 -130.9998 63991 57729.9258)">
		<stop  offset="0" style="stop-color:#FFFFFF;stop-opacity:0.1"/>
		<stop  offset="0.14" style="stop-color:#FFFFFF;stop-opacity:8.000000e-02"/>
		<stop  offset="0.61" style="stop-color:#FFFFFF;stop-opacity:2.000000e-02"/>
		<stop  offset="1" style="stop-color:#FFFFFF;stop-opacity:0"/>
	</linearGradient>
	<path id="b" style="fill:url(#b_00000121262752240183630900000006805185709685580201_);" d="M102.5,29.8c-0.2-1.1-1-2-2-2.3
		s-2.2-0.1-3,0.7L82,43.7L69.9,20.5c-0.5-1-1.5-1.6-2.6-1.6s-2.1,0.6-2.6,1.6L58,33.2L41.4,2.1c-0.6-1.1-1.9-1.7-3.1-1.5
		S36,1.8,35.8,3L19.8,106.2l43,24.2c2.7,1.5,6,1.5,8.7,0l43.3-24.2L102.5,29.8L102.5,29.8z"/>
</g>
</svg>
