<?xml version="1.0" encoding="utf-8"?>
<!-- Generator: Adobe Illustrator 26.0.3, SVG Export Plug-In . SVG Version: 6.00 Build 0)  -->
<svg version="1.1" id="Layer_1" xmlns="http://www.w3.org/2000/svg" xmlns:xlink="http://www.w3.org/1999/xlink" x="0px" y="0px"
	 viewBox="0 0 34 34" style="enable-background:new 0 0 34 34;" xml:space="preserve">
<style type="text/css">
	.st0{fill:#EA4335;}
	.st1{fill:#4285F4;}
	.st2{fill:#34A853;}
	.st3{fill:#FBBC05;}
</style>
<path class="st0" d="M21.5,10.4h1l2.9-2.8l0.1-1.2C20.2,1.7,12.1,2.2,7.5,7.5C6.2,9,5.2,10.7,4.7,12.6c0.3-0.1,0.7-0.2,1-0.1
	l5.7-0.9c0,0,0.3-0.5,0.4-0.4C14.4,8.4,18.6,8,21.5,10.4L21.5,10.4z"/>
<path class="st1" d="M29.5,12.6c-0.7-2.4-2-4.6-3.9-6.2l-4,4c1.7,1.4,2.7,3.5,2.6,5.6v0.7c2,0,3.6,1.6,3.6,3.6s-1.6,3.6-3.6,3.6
	h-7.1l-0.7,0.7v4.3l0.7,0.7h7.1c5.1,0,9.3-4.1,9.3-9.2C33.5,17.2,32,14.3,29.5,12.6z"/>
<path class="st2" d="M9.9,29.5h7.1v-5.7H9.9c-0.5,0-1-0.1-1.5-0.3l-1,0.3l-2.9,2.8l-0.2,1C6,28.8,7.9,29.5,9.9,29.5z"/>
<path class="st3" d="M9.9,11c-5.1,0-9.2,4.2-9.2,9.3c0,2.9,1.4,5.5,3.6,7.3l4.1-4.1c-1.8-0.8-2.6-2.9-1.8-4.7
	c0.8-1.8,2.9-2.6,4.7-1.8c0.8,0.4,1.4,1,1.8,1.8l4.1-4.1C15.6,12.3,12.8,11,9.9,11z"/>
</svg>
