<svg xmlns="http://www.w3.org/2000/svg" viewBox="0 0 128.95 145.36">
      <g>
        <path d="M64.5,145.36a11.25,11.25,0,0,1-5.59-1.49L41.13,133.34c-2.66-1.48-1.36-2-.48-2.31a35.8,35.8,0,0,0,8-3.67,1.36,1.36,0,0,1,1.32.1l13.66,8.1a1.78,1.78,0,0,0,1.65,0l53.27-30.74a1.69,1.69,0,0,0,.81-1.44V41.91a1.73,1.73,0,0,0-.82-1.47L65.33,9.72a1.65,1.65,0,0,0-1.64,0L10.46,40.44a1.71,1.71,0,0,0-.85,1.46v61.46a1.64,1.64,0,0,0,.83,1.43L25,113.22c7.92,4,12.76-.71,12.76-5.4V47.15a1.51,1.51,0,0,1,1.54-1.53h6.75a1.52,1.52,0,0,1,1.53,1.53v60.69c0,10.56-5.76,16.63-15.77,16.63-3.08,0-5.51,0-12.28-3.33l-14-8.06A11.25,11.25,0,0,1,0,103.36V41.9a11.18,11.18,0,0,1,5.59-9.71L58.91,1.43a11.66,11.66,0,0,1,11.2,0L123.36,32.2A11.25,11.25,0,0,1,129,41.91v61.47a11.27,11.27,0,0,1-5.59,9.7L70.11,143.84a11.18,11.18,0,0,1-5.62,1.5" style="fill: #689f63"/>
        <path d="M81,103c-23.3,0-28.19-10.7-28.19-19.67A1.53,1.53,0,0,1,54.3,81.8h6.88a1.55,1.55,0,0,1,1.52,1.31c1,7,4.13,10.55,18.23,10.55,11.22,0,16-2.54,16-8.49,0-3.43-1.36-6-18.8-7.68-14.59-1.44-23.6-4.66-23.6-16.32C54.53,50.42,63.59,44,78.78,44c17,0,25.51,5.92,26.57,18.64a1.57,1.57,0,0,1-.41,1.19,1.61,1.61,0,0,1-1.13.49H96.89a1.54,1.54,0,0,1-1.5-1.2c-1.66-7.37-5.69-9.73-16.64-9.73-12.25,0-13.68,4.26-13.68,7.46,0,3.88,1.68,5,18.22,7.2,16.37,2.18,24.14,5.24,24.14,16.75s-9.68,18.25-26.56,18.25" style="fill: #689f63"/>
  </g>
</svg>
