<?xml version="1.0" encoding="utf-8"?>
<!-- Generator: Adobe Illustrator 26.0.3, SVG Export Plug-In . SVG Version: 6.00 Build 0)  -->
<svg version="1.1" id="Layer_1" xmlns="http://www.w3.org/2000/svg" xmlns:xlink="http://www.w3.org/1999/xlink" x="0px" y="0px"
	 viewBox="0 0 256 256" style="enable-background:new 0 0 256 256;" xml:space="preserve">
<style type="text/css">
	.st0{fill:url(#SVGID_1_);}
	.st1{fill:url(#SVGID_00000146487335632599664060000009966371643371717050_);}
	.st2{fill:#E8B67F;}
	.st3{fill:url(#SVGID_00000127748570233391779290000001967312671165943487_);}
	.st4{fill:url(#SVGID_00000040542982088613889490000011633485578603832223_);}
	.st5{fill:url(#SVGID_00000153673886524735603550000018295469973824276148_);}
	.st6{fill:#D2A679;}
	.st7{fill:url(#SVGID_00000136385980050413659660000012551185423824829084_);}
	.st8{fill:url(#SVGID_00000173846413033645108870000005381199829888600748_);}
	.st9{fill:url(#SVGID_00000169552808253386196850000012650650690105748884_);}
	.st10{opacity:0.75;fill:url(#SVGID_00000157282029470234370140000006369961532926312835_);enable-background:new    ;}
	.st11{fill:#BF9064;}
	.st12{fill:#BD8F63;}
	.st13{opacity:0.54;fill:url(#SVGID_00000078766129909886767290000002958232687566329014_);enable-background:new    ;}
	.st14{fill:#322214;}
	.st15{fill:url(#SVGID_00000085947769142693254550000011626267511515347344_);}
	.st16{fill:#CD9C6B;}
	.st17{fill:url(#SVGID_00000137124321899338967070000002527649791875437200_);}
	.st18{fill:#D4A271;}
	.st19{fill:#DEB37E;}
	.st20{fill:#DBAD77;}
	.st21{opacity:0.54;fill:url(#SVGID_00000033362980904697973860000003937191912702118045_);enable-background:new    ;}
	.st22{fill:#D7AA77;}
	.st23{fill:url(#SVGID_00000075158100340698247610000012936065013864287889_);}
	.st24{fill:#F8CE93;}
</style>
<linearGradient id="SVGID_1_" gradientUnits="userSpaceOnUse" x1="-608.8149" y1="497.8959" x2="-608.8059" y2="497.8867" gradientTransform="matrix(71.1022 0 0 -45.6732 43463.6953 22941.4648)">
	<stop  offset="0" style="stop-color:#000000"/>
	<stop  offset="1" style="stop-color:#000000;stop-opacity:0"/>
</linearGradient>
<path class="st0" d="M140.5,222.8l70.3-44.4c0.3-0.2,0.6-0.1,0.8,0.2c0.2,0.3,0.1,0.6-0.2,0.8l-70.5,44.6c-0.1,0.1-0.2,0.1-0.3,0.1
	L140.5,222.8L140.5,222.8z"/>
<linearGradient id="SVGID_00000084511731882941765730000006166870312001920686_" gradientUnits="userSpaceOnUse" x1="-611.0826" y1="496.4177" x2="-611.0847" y2="496.4156" gradientTransform="matrix(96.3351 0 0 -36.7965 58961.3594 18472.0117)">
	<stop  offset="0" style="stop-color:#000000"/>
	<stop  offset="1" style="stop-color:#000000;stop-opacity:0"/>
</linearGradient>
<path style="fill:url(#SVGID_00000084511731882941765730000006166870312001920686_);" d="M140.6,224c-0.1,0-0.1,0-0.2,0l-95.8-35.7
	c-0.3-0.1-0.4-0.4-0.3-0.7c0,0,0,0,0,0c0.1-0.3,0.4-0.4,0.7-0.3l95.5,35.6L140.6,224L140.6,224z"/>
<path class="st2" d="M241.1,53.3L230,71.6l-44.4,18.9l-2.5,1l-39.9,37.3c-0.8,0.8-1.3,1.9-1.4,2.5c0,0.2-0.2,0.1-0.4,0.1
	c-0.2,0-0.4,0.1-0.4-0.2c0-0.8-0.1-1.7-1.4-2.5l-20-13l-14.6-9.5L63.9,95.9l-34.4-8.8L7.7,53.2L8,52.8l0,0l81.8-21.3
	c0.1,0,0.1,0,0.2,0l27.9,41.8l0.6,0.8c0.6,0.9,0.7,1.4,0.7,1.8h0.5v-0.1c0,0,0-0.1,0-0.1c0,0,0-0.1,0-0.1c0,0,0-0.1,0-0.1
	c0,0,0-0.1,0-0.1c0-0.1,0.1-0.3,0.1-0.5c0-0.1,0-0.1,0-0.1c0.1-0.2,0.1-0.3,0.2-0.5c0-0.1,0.1-0.1,0.1-0.2c0.1-0.2,0.2-0.4,0.2-0.5
	c0.1-0.2,0.2-0.3,0.2-0.4l25.2-36.6c0.1-0.1,0.1-0.1,0.2-0.1l95,16.3L241.1,53.3L241.1,53.3z"/>
<linearGradient id="SVGID_00000019679527944978843240000004620208617061418899_" gradientUnits="userSpaceOnUse" x1="-606.0817" y1="497.1038" x2="-605.9594" y2="497.0672" gradientTransform="matrix(55.687 0 0 -40.149 33860.4648 20051.8887)">
	<stop  offset="0" style="stop-color:#C37A44"/>
	<stop  offset="0.4442" style="stop-color:#BB713D"/>
	<stop  offset="0.6406" style="stop-color:#A05728"/>
	<stop  offset="1" style="stop-color:#964E23"/>
</linearGradient>
<path style="fill:url(#SVGID_00000019679527944978843240000004620208617061418899_);" d="M119.6,115.9L119.6,115.9l-14.6-9.4
	L63.9,95.9L119.2,76l0.2-0.3V76L119.6,115.9z"/>
<linearGradient id="SVGID_00000173156357797336883350000014912466551791991946_" gradientUnits="userSpaceOnUse" x1="-611.7976" y1="499.5799" x2="-612.0184" y2="499.759" gradientTransform="matrix(111.445 0 0 -64.3684 68262.7266 32226.3496)">
	<stop  offset="0" style="stop-color:#E9B880"/>
	<stop  offset="1" style="stop-color:#E4AF76"/>
</linearGradient>
<path style="fill:url(#SVGID_00000173156357797336883350000014912466551791991946_);" d="M119.2,76L63.9,95.9l-5-1.3L29.5,87
	L7.7,53.2l0.4-0.4l81.8-21.3c0.1,0,0.1,0,0.2,0l27.9,41.8l0.6,0.8C119.1,75.1,119.2,75.6,119.2,76L119.2,76z"/>
<linearGradient id="SVGID_00000082356334880807550800000013153488217581686184_" gradientUnits="userSpaceOnUse" x1="-607.2418" y1="492.0359" x2="-607.2591" y2="492.0543" gradientTransform="matrix(60.398 0 0 -23.31 36766.9219 11554.4814)">
	<stop  offset="0" style="stop-color:#C37A45;stop-opacity:0"/>
	<stop  offset="0.1334" style="stop-color:#C37A45"/>
	<stop  offset="0.2945" style="stop-color:#D08D55"/>
	<stop  offset="0.5021" style="stop-color:#DEA167"/>
	<stop  offset="0.6966" style="stop-color:#E8AF73"/>
	<stop  offset="0.8631" style="stop-color:#ECB477"/>
	<stop  offset="1" style="stop-color:#ECB477;stop-opacity:0"/>
</linearGradient>
<path style="fill:url(#SVGID_00000082356334880807550800000013153488217581686184_);" d="M119.3,78.1L67.1,96.9L59,94.8l59-21.2
	l0.6,0.8c0.6,0.9,0.7,1.4,0.7,1.8h0.2L119.3,78.1L119.3,78.1z"/>
<path class="st6" d="M30.2,87.2L29.5,87L7.7,53.2L8,52.8L30.2,87.2z"/>
<linearGradient id="SVGID_00000178913542813315775780000012554009326812984750_" gradientUnits="userSpaceOnUse" x1="-608.2479" y1="499.2319" x2="-608.499" y2="498.7464" gradientTransform="matrix(66.298 0 0 -55.7857 40473.4766 27940.6016)">
	<stop  offset="8.810000e-02" style="stop-color:#AF6938"/>
	<stop  offset="0.4829" style="stop-color:#9A5227"/>
	<stop  offset="0.7792" style="stop-color:#8D4520"/>
</linearGradient>
<path style="fill:url(#SVGID_00000178913542813315775780000012554009326812984750_);" d="M185.6,90.5l-2.5,1.1l-39.9,37.3
	c-0.8,0.8-1.3,1.9-1.4,2.5c0,0.2-0.2,0.1-0.4,0.1c-0.2,0-0.4,0.1-0.4-0.2c0-0.8-0.1-1.7-1.4-2.5l-20-13L119.3,76v-0.3l0.4,0.3
	L185.6,90.5L185.6,90.5z"/>
<linearGradient id="SVGID_00000126306872598091310280000010863178979863419322_" gradientUnits="userSpaceOnUse" x1="-612.5472" y1="498.8199" x2="-612.3928" y2="498.9433" gradientTransform="matrix(121.4291 0 0 -53.994 74544.8828 26997.502)">
	<stop  offset="3.270000e-02" style="stop-color:#E4AF76"/>
	<stop  offset="1" style="stop-color:#E9B880"/>
</linearGradient>
<path style="fill:url(#SVGID_00000126306872598091310280000010863178979863419322_);" d="M241.1,53.3L230,71.6l-40.4,17.2l-4,1.7
	L119.7,76c0-0.5,0.3-1.7,0.7-2.4c0.1-0.2,0.2-0.3,0.2-0.4l25.2-36.6c0.1-0.1,0.1-0.1,0.2-0.1l95,16.3L241.1,53.3L241.1,53.3z"/>
<linearGradient id="SVGID_00000107572993039779438330000016084761017311498881_" gradientUnits="userSpaceOnUse" x1="-608.7386" y1="489.1451" x2="-608.728" y2="489.1576" gradientTransform="matrix(70.298 0 0 -18.76 42945.4727 9259.0068)">
	<stop  offset="0" style="stop-color:#AF6A38;stop-opacity:0"/>
	<stop  offset="8.600000e-02" style="stop-color:#AF6A38"/>
	<stop  offset="0.1977" style="stop-color:#B87542"/>
	<stop  offset="0.5828" style="stop-color:#D59C66"/>
	<stop  offset="0.7771" style="stop-color:#E4AF76"/>
	<stop  offset="0.9239" style="stop-color:#E4AF76;stop-opacity:0"/>
</linearGradient>
<path style="fill:url(#SVGID_00000107572993039779438330000016084761017311498881_);" d="M189.6,88.8l-6.4,2.7l-0.8,0.8l-63-13.9
	l0.3-2.4h0.1c0-0.5,0.3-1.7,0.7-2.4C120.4,73.6,189.6,88.8,189.6,88.8z"/>
<linearGradient id="SVGID_00000085928821829942275270000006259221930749815203_" gradientUnits="userSpaceOnUse" x1="-436.6864" y1="497.1629" x2="-435.8361" y2="497.1629" gradientTransform="matrix(3.41 0 0 -40.807 1607.0272 20384.1426)">
	<stop  offset="0" style="stop-color:#743F1A;stop-opacity:0"/>
	<stop  offset="0.4929" style="stop-color:#743F1A;stop-opacity:0.887"/>
	<stop  offset="0.5" style="stop-color:#743F1A;stop-opacity:0.9"/>
	<stop  offset="0.5297" style="stop-color:#743F1A;stop-opacity:0.847"/>
	<stop  offset="1" style="stop-color:#743F1A;stop-opacity:0"/>
</linearGradient>
<path style="opacity:0.75;fill:url(#SVGID_00000085928821829942275270000006259221930749815203_);enable-background:new    ;" d="
	M121.1,76.3v40.5l-1.5-0.9h0l-1.9-1.3V76.6l1.5-0.5h0.5L121.1,76.3z"/>
<path class="st11" d="M140.2,223.3l-95.9-35.8c-0.5-0.2-0.6-0.7-0.7-1.4c0,0-4.1-81.7-4.1-81.7c0-0.2,0.2-0.3,0.2-0.5
	c-0.1-0.3-0.7-1.5-0.8-1.6L0,80.3l0.3-0.8L105,106.4l34.6,22.4c1.3,0.8,1.4,1.7,1.4,2.5c0,0.2,0.3,0.2,0.4,0.2
	c0.2,0,0.4,0.1,0.4-0.1c0.1-0.6,0.6-1.7,1.4-2.5l39.9-37.3l72.4-30.8l0.4,0.6l-39.1,34.3c-0.8,0.8-1.1,1.7-1,2.1l-4,80.1
	c-0.1,0.5-0.3,0.7-0.8,1L141,223.2C140.8,223.4,140.5,223.5,140.2,223.3L140.2,223.3z"/>
<path class="st12" d="M141.4,131.5l-0.7,91.9c-0.2,0.1-0.4,0-0.6,0l-95.9-35.8c-0.5-0.2-0.6-0.8-0.7-1.4l-4.1-81.7v0c0,0,0,0,0-0.1
	c0,0,0,0,0,0c0,0,0,0,0-0.1c0,0,0,0,0-0.1c0-0.1,0.1-0.1,0.1-0.2c0,0,0,0,0,0v0L141,131.4C141,131.5,141.3,131.5,141.4,131.5
	L141.4,131.5z"/>
<linearGradient id="SVGID_00000085217629738632406910000013550424098701575561_" gradientUnits="userSpaceOnUse" x1="-611.1318" y1="496.3929" x2="-611.1309" y2="496.3939" gradientTransform="matrix(97.027 0 0 -36.6799 59388.4102 18412.7266)">
	<stop  offset="0" style="stop-color:#322214"/>
	<stop  offset="0.2397" style="stop-color:#322314;stop-opacity:0.989"/>
	<stop  offset="1" style="stop-color:#322214;stop-opacity:0"/>
</linearGradient>
<path style="opacity:0.54;fill:url(#SVGID_00000085217629738632406910000013550424098701575561_);enable-background:new    ;" d="
	M140.8,223.1v0.3c-0.2,0.1-0.4,0-0.6,0l-95.9-35.8c-0.4-0.2-0.5-0.5-0.6-0.9L140.8,223.1z"/>
<path class="st14" d="M97.4,167.4l37.1,12.1l-0.1,36.2L98,202.3L97.4,167.4L97.4,167.4z M116,191.7l0.1,16.8l18,6.6V198L116,191.7
	L116,191.7z M121.3,197.1l3.6,5.8l3.6-3.1l0.6,0.7l-3.7,3.2l3.7,5.9l-0.5,0.3l-3.6-5.8l-3.5,3.1l-0.6-0.7l3.7-3.2l-3.7-5.9
	C120.8,197.4,121.3,197.1,121.3,197.1z M132,203.6v1.6l0.9,0.3v1.9l-0.9-0.4v1.5l-2.1-3.2L132,203.6L132,203.6z M128.8,201.6
	l0.7,0.2v6.6l-0.7-0.3V201.6z M98.1,185.5l0.3,16.5l17.2,6.3l-0.1-16.7L98.1,185.5z M125,205.2l1.9,3l-3.8-1.4L125,205.2z
	 M127.9,202.4v4.3l-1.9-2.8L127.9,202.4z M120.5,198.5l0.7,0.2v6.6l-0.7-0.2V198.5z M122.1,200.3l1.9,2.9l-1.9,1.4V200.3
	L122.1,200.3z M106.5,192.3l0.7,0.2l0,0.4c2.1,0.9,4.2,3,5.2,6.3c-0.7-1.1-1.2-1.3-2.3-1c-0.4-0.8-1.5-1.2-2.2-0.8
	c-0.2-0.3-0.4-0.6-0.7-0.8l0,6.3c0,0.6-0.4,1.1-1.4,0.9c-0.9-0.2-1.3-0.9-1.2-2.1l0.5,0.1c0,0.8,0.1,1.2,0.7,1.4
	c0.5,0.1,0.7-0.1,0.7-0.5l-0.1-6.2c-0.3,0-0.5,0.1-0.7,0.2c-0.2-0.6-1.3-1.4-2.1-0.8c-0.6-0.9-1.7-1.3-2.3-0.6
	c0.8-2.4,2.9-3.2,5.1-2.6L106.5,192.3L106.5,192.3z M117.9,198.5l2,3.2l-2,1.7l0-1.6l-1-0.2v-1.8l0.9,0.3L117.9,198.5L117.9,198.5z
	 M123.1,199.2l3.8,1.4l-1.9,1.7L123.1,199.2z M116,174l0,17.1l18.1,6.3v-17.5L116,174L116,174z M119.3,188.7l10.8,3.7v2.1l-10.8-3.7
	C119.3,190.9,119.3,188.7,119.3,188.7z M110,192.8L110,192.8c0.1,0.1,0.1,0.8-0.1,1c-0.1,0.1-0.3,0-0.4-0.1
	c-0.1-0.1-0.2-0.3-0.2-0.5S110,192.7,110,192.8L110,192.8L110,192.8z M111,191.1L111,191.1c0.1,0.1,0.1,0.8-0.1,1
	c-0.1,0.1-0.3,0-0.4-0.1c-0.1-0.1-0.2-0.3-0.2-0.5S111,191,111,191.1L111,191.1L111,191.1z M108.2,191L108.2,191
	c0.1,0.1,0.1,0.8-0.1,1c-0.1,0.1-0.3,0-0.4-0.1c-0.1-0.1-0.2-0.3-0.2-0.5S108.2,191,108.2,191L108.2,191L108.2,191z M105.4,190.6
	L105.4,190.6c0.1,0.1,0.1,0.8-0.1,1c-0.1,0.1-0.3,0-0.4-0.1c-0.1-0.1-0.2-0.3-0.2-0.5S105.3,190.6,105.4,190.6L105.4,190.6
	L105.4,190.6z M127.7,179.4l2.6,5.2l-1.8-0.6v7.5l-1.8-0.6l0-7.4l-1.8-0.6L127.7,179.4L127.7,179.4z M97.8,168l0.3,16.9l17.4,6
	l-0.2-17.1L97.8,168z M121.8,177.4l2.6,5.2l-1.8-0.6v7.5l-1.8-0.6l0-7.4l-1.8-0.6L121.8,177.4L121.8,177.4z M101.7,171.4l1.4,0.5
	l0.7,2.4l-0.7-0.1l2.1,5.1l-1.1-4.2l0.6,0l-0.6-2.9l7.3,2.4v4c0,1.5-1.7,3.5-4,2.5l0,4.1l3.4,2.2l-8.1-2.8l3.3,0.2l-0.1-4
	c-2.3-0.7-4-3.5-4-5.2L101.7,171.4L101.7,171.4z"/>
<linearGradient id="SVGID_00000059311302148875461930000002887158263307115708_" gradientUnits="userSpaceOnUse" x1="-613.1175" y1="498.7519" x2="-613.1442" y2="498.7185" gradientTransform="matrix(141.435 0 0 -52.977 86788.8281 26527.4531)">
	<stop  offset="4.760000e-02" style="stop-color:#C69866"/>
	<stop  offset="0.4156" style="stop-color:#BA8C5E"/>
	<stop  offset="0.8135" style="stop-color:#B5875B"/>
</linearGradient>
<path style="fill:url(#SVGID_00000059311302148875461930000002887158263307115708_);" d="M141.4,131.5c-0.4,0-0.7,0.5-0.7,1l-0.1,0
	l-101.1-28c0-0.2,0.2-0.3,0.2-0.4c0,0,0,0,0,0c-0.1-0.3-0.7-1.5-0.8-1.6L0,80.3l0.3-0.8L105,106.4h0l34.6,22.4
	c1.3,0.8,1.4,1.7,1.4,2.5c0,0,0,0,0,0C141,131.5,141.3,131.5,141.4,131.5L141.4,131.5z"/>
<path class="st16" d="M216.9,95.7c-0.8,0.8-1.1,1.7-1,2.1l-73.6,34.8l-0.1-0.1c0-0.6-0.4-1-0.7-1c0.1,0,0.3,0.1,0.3-0.1
	c0-0.1,0.1-0.3,0.1-0.4c0-0.1,0.1-0.3,0.2-0.4c0.2-0.5,0.5-1,0.9-1.5c0.1-0.1,0.1-0.1,0.2-0.2l39.9-37.3l72.4-30.8l0.4,0.6
	L216.9,95.7L216.9,95.7z"/>
<linearGradient id="SVGID_00000055667403971070503830000012801455573312992142_" gradientUnits="userSpaceOnUse" x1="-606.2676" y1="498.4154" x2="-606.6481" y2="498.7948" gradientTransform="matrix(55.558 0 0 -49.8693 33757.4375 24970.8457)">
	<stop  offset="0" style="stop-color:#845F35"/>
	<stop  offset="0.4311" style="stop-color:#91673C"/>
	<stop  offset="0.4407" style="stop-color:#976A40"/>
	<stop  offset="0.8737" style="stop-color:#986B40"/>
	<stop  offset="1" style="stop-color:#AB8157"/>
</linearGradient>
<path style="fill:url(#SVGID_00000055667403971070503830000012801455573312992142_);" d="M96,140.6c0.1,0,0.2,0,0.2-0.1l-0.4-20.3
	c0-0.7-0.2-2.1-1-2.6L57.9,95.2l-17.3-4.5l37.5,22.4c0.9,0.6,1,1.8,1.1,2.6l0.5,19.8c0,0.1,0,0.1,0.1,0.1L96,140.6L96,140.6z"/>
<path class="st18" d="M141.4,131.5c-0.4,0-0.7,0.6-0.7,1.1c0,0-0.1,0-0.1,0c-0.1-1.1-0.5-2.3-1.1-2.7l-34.9-22.5l0.3-0.9h0
	l34.6,22.4c1.3,0.8,1.4,1.7,1.4,2.5c0,0,0,0,0,0C141,131.5,141.3,131.5,141.4,131.5L141.4,131.5z"/>
<path class="st19" d="M105,106.4l-0.3,0.9L0,80.3l0.3-0.7L105,106.4z"/>
<path class="st20" d="M216,97.8l-4,80.1c-0.1,0.5-0.3,0.7-0.8,1l-70.1,44.4c-0.1,0.1-0.2,0.1-0.3,0.1l0.7-91.9
	c0.2,0,0.4,0.1,0.4-0.1c0,0,0-0.1,0-0.1L216,97.8C215.9,97.8,215.9,97.8,216,97.8L216,97.8z"/>
<linearGradient id="SVGID_00000165225657722097095410000009984430832514862220_" gradientUnits="userSpaceOnUse" x1="-608.8198" y1="497.8746" x2="-608.8187" y2="497.8735" gradientTransform="matrix(71.197 0 0 -45.548 43522.4961 22877.7949)">
	<stop  offset="0" style="stop-color:#322214;stop-opacity:0"/>
	<stop  offset="1" style="stop-color:#322214"/>
</linearGradient>
<path style="opacity:0.54;fill:url(#SVGID_00000165225657722097095410000009984430832514862220_);enable-background:new    ;" d="
	M212,177.8L212,177.8c-0.1,0.5-0.3,0.7-0.8,1l-70.1,44.4c-0.1,0.1-0.2,0.1-0.3,0.1v-0.3L212,177.8z"/>
<path class="st14" d="M210.6,143l-1.6,32.6l-23.3,14.5l1.2-33.9L210.6,143L210.6,143z M198.2,166.6l-11.6,6.8l-0.6,16.1l11.5-7.2
	L198.2,166.6L198.2,166.6z M192.7,173.5l0,0.5c1.4-0.7,2.7-0.2,3.2,2.1c-0.4-0.5-1.1-0.3-1.5,0.8c-0.2-0.4-1.3-0.1-1.4,0.9
	c-0.1-0.2-0.2-0.2-0.4-0.2l-0.3,6.2c0,0.5-0.1,1.1-0.7,1.5c-0.3,0.1-1.1,0.2-1-0.9l0.4-0.3c0,0.7,0.2,0.9,0.6,0.7
	c0.5-0.3,0.4-0.8,0.4-1.2l0.2-5.9c-0.3,0.2-0.5,0.5-0.6,0.9c-0.1-0.4-1.3-0.1-1.4,0.9c-0.3-0.4-1.2,0-1.6,1.1
	c0.6-2.9,2.2-5.3,3.7-6.3l0-0.5L192.7,173.5L192.7,173.5z M209.6,159.9l-11,6.5l-0.6,15.7l10.9-6.9L209.6,159.9z M206.1,165.2
	l0.3,0.3l-2.4,5.5l2,2.7l-0.3,0.7l-2-2.7l-2.4,5.4l-0.3-0.3l2.4-5.5l-2.1-2.8l0.4-0.7l2,2.8L206.1,165.2L206.1,165.2z M199.4,171.4
	l1.2,1.5l-1.3,2.9v-1.3l-0.6,0.3l0-1.6l0.6-0.3L199.4,171.4z M201.6,169.5l-0.3,6l-0.4,0.3l0.2-6L201.6,169.5L201.6,169.5z
	 M203.7,172.6l1.1,1.4l-2.3,1.4L203.7,172.6z M191.4,173.1c0.1,0,0,0.7-0.1,1c-0.1,0.1-0.2,0.2-0.3,0.3s-0.1-0.1-0.1-0.4
	S191.4,173.1,191.4,173.1L191.4,173.1z M202.1,170.3l1.1,1.3l-1.2,2.4L202.1,170.3L202.1,170.3z M194.5,171.8c0,0,0,0.7-0.1,1
	c-0.1,0.1-0.2,0.2-0.3,0.3s-0.1-0.1-0.1-0.4S194.4,171.8,194.5,171.8L194.5,171.8z M198.9,150l-11.7,6.6l-0.6,16.4l11.6-6.8
	L198.9,150z M206.6,166.4l-0.3,6l-0.4,0.3l0.3-6L206.6,166.4L206.6,166.4z M193.4,171.4c0.1,0,0,0.7-0.1,1c-0.1,0.1-0.2,0.2-0.3,0.3
	s-0.1-0.1-0.1-0.4S193.3,171.4,193.4,171.4L193.4,171.4z M205.6,168.1l-0.2,3.8l-1-1.2L205.6,168.1L205.6,168.1z M208.1,166.3
	l-0.1,1.5l0.6-0.3l-0.1,1.6l-0.6,0.3l0,1.4l-1.2-1.4L208.1,166.3L208.1,166.3z M195.3,169.4c0.1,0,0,0.7-0.1,1
	c-0.1,0.1-0.2,0.2-0.3,0.3s-0.1-0.1-0.1-0.4S195.2,169.4,195.3,169.4L195.3,169.4z M205,167.1l-1.2,2.8l-1.1-1.4L205,167.1
	L205,167.1z M196.2,153.4l-0.1,4.1c-0.1,1.4-1.2,3.9-2.9,5l-0.2,3.9l2.2-0.5l-5.4,3.1l2.3-2.1l0.1-3.8c-1.4,0.8-2.6-0.7-2.5-2.3
	l0.1-3.8l1-0.5l0.3,1.8l-0.5,0.4l1.2,3.4l-0.4-3.1l0.4-0.5l-0.3-2.4L196.2,153.4L196.2,153.4z M210.4,143.6l-11.2,6.3l-0.7,16.1
	l11.1-6.6L210.4,143.6L210.4,143.6z M207.5,157.5l-0.1,1.9l-6.6,3.9l0.1-1.9L207.5,157.5L207.5,157.5z M202.8,149.2l1.4,3.1
	l-1.1,0.6l-0.3,6.9l-1,0.6l0.2-6.9l-1.1,0.6C201,154.1,202.8,149.2,202.8,149.2z M206.5,147.2l1.4,3l-1.2,0.6l-0.2,6.8l-1.1,0.6
	l0.4-6.9l-1.1,0.6C204.6,152,206.5,147.2,206.5,147.2z"/>
<path class="st22" d="M183.7,92.3l-39.6,36.8c-1.1,1.1-1.9,2.7-1.8,3.5c0,0-0.1,0.1-0.2,0c0.1-0.6-0.4-1.1-0.7-1.1
	c0.1,0,0.3,0.1,0.3-0.1c0-0.1,0.1-0.3,0.1-0.4c0-0.1,0.1-0.3,0.2-0.4c0.2-0.5,0.6-1.2,1.1-1.6l39.9-37.3
	C183.1,91.6,183.7,92.3,183.7,92.3z"/>
<linearGradient id="SVGID_00000070119450074212880700000017559435522763367316_" gradientUnits="userSpaceOnUse" x1="-606.0201" y1="499.5151" x2="-605.9719" y2="499.806" gradientTransform="matrix(53.638 0 0 -64.0146 32705.2871 32089.4512)">
	<stop  offset="0" style="stop-color:#A9794B"/>
	<stop  offset="0.3857" style="stop-color:#AE7F53"/>
	<stop  offset="0.4557" style="stop-color:#AC7D50"/>
	<stop  offset="0.6236" style="stop-color:#A9794B"/>
	<stop  offset="1" style="stop-color:#B2875D"/>
</linearGradient>
<path style="fill:url(#SVGID_00000070119450074212880700000017559435522763367316_);" d="M175,137c0,0.1,0.1,0.2,0.1,0.1L187,131
	c0,0,0,0,0-0.1l0.7-19.5c0-1.1,0.6-2.1,1.4-2.9l39.5-35.5l-12,5.2l-39.7,36c-1,1-1.4,2.2-1.4,3.2L175,137L175,137z"/>
<path class="st24" d="M183.7,92.3l72.3-31l-0.4-0.6l-72.4,30.8L183.7,92.3z"/>
</svg>
