<?xml version="1.0" encoding="utf-8"?>
<!-- Generator: Adobe Illustrator 26.0.3, SVG Export Plug-In . SVG Version: 6.00 Build 0)  -->
<svg version="1.1" id="Layer_1" xmlns="http://www.w3.org/2000/svg" xmlns:xlink="http://www.w3.org/1999/xlink" x="0px" y="0px"
	 viewBox="0 0 800 800" style="enable-background:new 0 0 800 800;" xml:space="preserve">
<style type="text/css">
	.st0{fill:#FFFFFF;stroke:#000000;stroke-miterlimit:10;}
</style>
<polygon class="st0" points="384.5,762.2 106.9,633.5 110.4,239.1 191.5,183.1 230.8,86.6 268.9,28.2 327.3,112.8 348.8,142.6 
	398.8,73.5 451.2,143.8 519.2,30.6 593,118.8 591.8,178.4 681.2,226 684.8,644.3 425,776.5 "/>
<path d="M98.7,210.1c-8.7,5.5-13.9,15.1-13.9,25.4v384.1c0.1,23.5,13.7,44.8,35,54.8l236.7,112c27.6,12.7,59.4,12.7,87,0l236.7-112
	c21.2-10,34.8-31.3,35-54.8V235.6c0.1-10.4-5.4-20.1-14.3-25.4l-88.6-45.7v-39.7c0-7.3-2.1-14.5-6-20.7l-52.8-85.8
	c-8.5-14-26.8-18.5-40.9-10c-4.1,2.5-7.5,5.9-10,10l-51,83.8l-26.2-42.5c-5.5-8.7-15.1-13.9-25.4-13.9c-10.3,0.3-19.8,5.7-25.4,14.3
	l-25.8,42.1l-52-83.8c-8.5-14-26.8-18.5-40.9-10c-4.1,2.5-7.5,5.9-10,10l-52.2,85.8c-3.9,6.2-5.9,13.3-6,20.7v39.7L98.7,210.1z
	 M612.3,209.7l27.8,13.9l-27.8,13.1V209.7z M515.4,73.5h25.4l19.9,32.2h-65.1L515.4,73.5z M572.6,145.4v110l-24.2,11.5V145.4
	L572.6,145.4z M484,145.4h24.6v140.2L484,297.5V145.4z M258.8,73.5h25.4l19.9,32.2h-65.1L258.8,73.5z M316,145.4v151.7l-24.2-11.5
	V145.4L316,145.4z M227.4,145.4H252v121.5l-24.6-11.5L227.4,145.4z M187.7,209.7v27l-27.8-13.1L187.7,209.7z M136.5,638.3
	c-7.3-3.4-11.9-10.7-11.9-18.7v-369l255.4,120.7v380.9L136.5,638.3z M379.9,327.3l-24.2-11.5V187.1h24.2V327.3z M367.2,147.4
	l20.3-32.6h24.6l20.3,32.6H367.2z M444.3,187.1v129.1l-24.6,11.5V187.1H444.3z M419.9,752.7V371.8l255.8-121.1v369
	c0,8.1-4.8,15.5-12.3,18.7L419.9,752.7z"/>
</svg>
