<svg xmlns="http://www.w3.org/2000/svg" xmlns:xlink="http://www.w3.org/1999/xlink" viewBox="0 0 82.4 82.4"><defs><linearGradient id="a" x1="171.4" y1="448.38" x2="164.23" y2="454.01" gradientTransform="translate(-120.94 -372.64)" gradientUnits="userSpaceOnUse"><stop offset="0" stop-color="#f4a595" stop-opacity=".3"/><stop offset="1" stop-color="#f29595"/></linearGradient><linearGradient id="c" x1="161.9" y1="456.06" x2="169.6" y2="449.19" gradientTransform="translate(-120.94 -372.64)" gradientUnits="userSpaceOnUse"><stop offset="0" stop-color="#fcded8"/><stop offset="1" stop-color="#fcded8"/></linearGradient><linearGradient id="d" x1="171.54" y1="432.1" x2="163.59" y2="440.04" xlink:href="#a"/><linearGradient id="e" x1="162.63" y1="441.02" x2="170.73" y2="432.77" gradientTransform="translate(-120.94 -372.64)" gradientUnits="userSpaceOnUse"><stop offset="0" stop-color="#f4a495"/><stop offset="1" stop-color="#f7b5a9"/></linearGradient><linearGradient id="f" x1="214.9" y1="445.05" x2="159.16" y2="406.71" gradientTransform="translate(-120.94 -372.64)" gradientUnits="userSpaceOnUse"><stop offset="0" stop-color="#ec6564"/><stop offset="1" stop-color="#ef7b74"/></linearGradient><clipPath id="b" transform="translate(-21.8 -23.3)"><path style="fill:none" d="M0 0h125.9v125.9H0z"/></clipPath></defs><g data-name="Layer 2"><g style="clip-path:url(#b)" data-name="katman 1"><path d="M63.1 93.1v12.6a7.55 7.55 0 0 1-5.4-2.2l-1-1.2-34-40.5v-.1l-.1-.2a2.51 2.51 0 0 1-.4-.7 3.55 3.55 0 0 1-.2-1v-.4a3.7 3.7 0 0 1 .8-1.8 3.21 3.21 0 0 1 2.2-1h7.5l30.6 36.5z" transform="translate(-21.8 -23.3)" style="fill-rule:evenodd;fill:url(#a)"/><path d="M63.1 93.1v12.6a7.55 7.55 0 0 1-5.4-2.2l-1-1.2-34-40.5v-.1l-.1-.2a2.51 2.51 0 0 1-.4-.7 3.55 3.55 0 0 1-.2-1v-.4a3.7 3.7 0 0 1 .8-1.8 3.21 3.21 0 0 1 2.2-1h7.5l30.6 36.5z" transform="translate(-21.8 -23.3)" style="fill-rule:evenodd;fill:url(#a)"/><path d="M63.1 93.1v12.6a7.55 7.55 0 0 1-5.4-2.2l-1-1.2-25.4-30.2-8.6-10.3v-.1l-.1-.2a2.51 2.51 0 0 1-.4-.7 3.55 3.55 0 0 1-.2-1v-.4a3.7 3.7 0 0 1 .8-1.8 3.21 3.21 0 0 1 2.2-1h7.5l3.5 4.2 9.5 11.3 15.4 18.5 2.2 2.5z" transform="translate(-21.8 -23.3)" style="fill-opacity:.4000000059604645;fill-rule:evenodd;fill:url(#c)"/><path d="M63.1 76.4v16.8l-40.5-48-.1-.1a2 2 0 0 1-.4-.8 3.55 3.55 0 0 1-.2-1v-.2a2.79 2.79 0 0 1 .8-2 3.21 3.21 0 0 1 2.2-1h7.6z" transform="translate(-21.8 -23.3)" style="fill-rule:evenodd;fill:url(#d)"/><path d="M63.1 76.4v16.8l-40.5-48-.1-.1a2 2 0 0 1-.4-.8 3.55 3.55 0 0 1-.2-1v-.2a2.79 2.79 0 0 1 .8-2 3.21 3.21 0 0 1 2.2-1h7.6z" transform="translate(-21.8 -23.3)" style="fill-rule:evenodd;fill:url(#d)"/><path d="M63.1 76.4v16.8l-2.2-2.6-15.5-18.4L35.9 61l-3.5-4.2-9.8-11.6-.1-.1a2 2 0 0 1-.4-.8 3.55 3.55 0 0 1-.2-1v-.2a2.79 2.79 0 0 1 .8-2 3.21 3.21 0 0 1 2.2-1h7.6l3.5 4.2 10.6 12.5 3.5 4.2 9.5 11.2z" transform="translate(-21.8 -23.3)" style="fill-opacity:.30000001192092896;fill-rule:evenodd;fill:url(#e)"/><path d="M24.8 23.3a2.87 2.87 0 0 0-2.2 1 2.79 2.79 0 0 0-.8 2v.2a3 3 0 0 0 .2 1v.1a2.51 2.51 0 0 0 .4.7l.2.2L63 76.4v29.3h.6a7.56 7.56 0 0 0 4.8-2.1l1-1.2L103.5 62l.1-.1a2 2 0 0 0 .4-.8 3.59 3.59 0 0 0 .2-1.1V26.5a3 3 0 0 0-.8-2.1 3.21 3.21 0 0 0-2.2-1H24.8z" transform="translate(-21.8 -23.3)" style="fill-rule:evenodd;fill:url(#f)"/><path d="M24.8 23.3a2.87 2.87 0 0 0-2.2 1 2.79 2.79 0 0 0-.8 2v.2a3 3 0 0 0 .2 1v.1a2.51 2.51 0 0 0 .4.7l.2.2L63 76.4v29.3h.6a7.56 7.56 0 0 0 4.8-2.1l1-1.2L103.5 62l.1-.1a2 2 0 0 0 .4-.8 3.59 3.59 0 0 0 .2-1.1V26.5a3 3 0 0 0-.8-2.1 3.21 3.21 0 0 0-2.2-1H24.8z" transform="translate(-21.8 -23.3)" style="fill-rule:evenodd;fill:url(#f)"/><path d="M24.8 23.3a2.87 2.87 0 0 0-2.2 1 2.79 2.79 0 0 0-.8 2v.2a3 3 0 0 0 .2 1v.1a2.51 2.51 0 0 0 .4.7l.2.2L63 76.4v29.3h.6a7.56 7.56 0 0 0 4.8-2.1l1-1.2L103.5 62l.1-.1a2 2 0 0 0 .4-.8 3.59 3.59 0 0 0 .2-1.1V26.5a3 3 0 0 0-.8-2.1 3.21 3.21 0 0 0-2.2-1H24.8z" transform="translate(-21.8 -23.3)" style="fill-rule:evenodd;fill:url(#f)"/><path d="M24.8 23.3a2.87 2.87 0 0 0-2.2 1 2.79 2.79 0 0 0-.8 2v.2a3 3 0 0 0 .2 1v.1a2.51 2.51 0 0 0 .4.7l.2.2L63 76.4v29.3h.6a7.56 7.56 0 0 0 4.8-2.1l1-1.2L103.5 62l.1-.1a2 2 0 0 0 .4-.8 3.59 3.59 0 0 0 .2-1.1V26.5a3 3 0 0 0-.8-2.1 3.21 3.21 0 0 0-2.2-1H24.8z" transform="translate(-21.8 -23.3)" style="fill-rule:evenodd;fill:url(#f)"/><path d="M24.8 23.3a2.87 2.87 0 0 0-2.2 1 2.79 2.79 0 0 0-.8 2v.2a3 3 0 0 0 .2 1v.1a2.51 2.51 0 0 0 .4.7l.2.2L63 76.4v29.3h.6a7.56 7.56 0 0 0 4.8-2.1l1-1.2L103.5 62l.1-.1a2 2 0 0 0 .4-.8 3.59 3.59 0 0 0 .2-1.1V26.5a3 3 0 0 0-.8-2.1 3.21 3.21 0 0 0-2.2-1H24.8z" transform="translate(-21.8 -23.3)" style="fill-rule:evenodd;fill:url(#f)"/><path d="M24.8 23.3a2.87 2.87 0 0 0-2.2 1 2.79 2.79 0 0 0-.8 2v.2a3 3 0 0 0 .2 1v.1a2.51 2.51 0 0 0 .4.7l.2.2L63 76.4v29.3h.6a7.56 7.56 0 0 0 4.8-2.1l1-1.2L103.5 62l.1-.1a2 2 0 0 0 .4-.8 3.59 3.59 0 0 0 .2-1.1V26.5a3 3 0 0 0-.8-2.1 3.21 3.21 0 0 0-2.2-1H24.8z" transform="translate(-21.8 -23.3)" style="fill-rule:evenodd;fill:url(#f)"/></g></g></svg>