<svg xmlns="http://www.w3.org/2000/svg" viewBox="0 0 391.69 392.19"><defs><linearGradient id="a" x1="97.81" y1="445.93" x2="326.81" y2="134.93" gradientTransform="matrix(1 0 0 -1 0 403.04)" gradientUnits="userSpaceOnUse"><stop offset="0" stop-color="#41d1ff"/><stop offset="1" stop-color="#bd34fe"/></linearGradient><linearGradient id="b" x1="205.79" y1="398.68" x2="247.22" y2="114.51" gradientTransform="matrix(1 0 0 -1 0 403.04)" gradientUnits="userSpaceOnUse"><stop offset="0" stop-color="#ffea83"/><stop offset=".08" stop-color="#ffdd35"/><stop offset="1" stop-color="#ffa800"/></linearGradient></defs><g data-name="Layer 2"><g data-name="Layer 1"><path d="m390.4 58.05-184 329a10 10 0 0 1-17.42.07L1.34 58.08a10 10 0 0 1 10.44-14.8L196 76.21a10.08 10.08 0 0 0 3.55 0l180.33-32.88a10 10 0 0 1 10.52 14.72z" style="fill:url(#a)"/><path d="M283.72.1 147.56 26.78a5 5 0 0 0-4 4.61l-8.38 141.46a5 5 0 0 0 6.12 5.17l37.91-8.75a5 5 0 0 1 6 5.87l-11.27 55.16a5 5 0 0 0 6.35 5.78L203.7 229a5 5 0 0 1 6.35 5.79l-17.9 86.64a5 5 0 0 0 9.1 3.73l2-3.11 111-221.43a5 5 0 0 0-5.42-7.15l-39 7.54a5 5 0 0 1-5.75-6.3l25.41-88.32A5 5 0 0 0 283.72.1z" style="fill:url(#b)"/></g></g></svg>