<svg xmlns="http://www.w3.org/2000/svg" viewBox="0 0 987.86 1117.66"><g id="a8de25db-2bcd-4eb3-bb67-2112aedfef81" data-name="Layer 2"><g id="b44dac77-595c-461e-b0bd-6f21a4a68037" data-name="Layer 1"><path d="M493.93,0,987.86,279.38v558.9L493.93,1117.66,0,838.28V279.38Z" style="fill:#fff"/><path d="M899.67,819,510.27,1039.3V867.76l242.62-133.5Zm26.67-24.13V334.26L783.91,416.59v296.1ZM86.66,819l389.4,220.29V867.76L233.31,734.26ZM60,794.88V334.26l142.43,82.33v296.1ZM76.71,304.4,476.06,78.49v165.8L220.16,385.06l-2,1.15Zm832.91,0L510.27,78.49v165.8l255.9,140.64,2,1.15Z" style="fill:#8ed6fb"/><path d="M476.06,828.71,236.63,697V436.24L476.06,574.47Zm34.21,0L749.7,697.12V436.24L510.27,574.47ZM252.84,406.12,493.17,274l240.32,132.1L493.16,544.86Z" style="fill:#1c78c0"/></g></g></svg>